<svg xmlns="http://www.w3.org/2000/svg" width="156.91" height="155.76" viewBox="0 0 156.91 155.76">
	<defs>
		<style>
			.cls-1{fill:#fff;}
			.cls-2{fill:#ff50a0;}
		</style>
	</defs>
	<title>btn_menu</title>
	<circle class="cls-1" cx="77.4" cy="84.34" r="71.42" />
	<path class="cls-2" d="M151,45.08a73.66,73.66,0,0,0-16.12-23.46A75.12,75.12,0,0,0,111,5.8,76.74,76.74,0,0,0,48.88,7.37a3,3,0,0,0-1.41,4,3.06,3.06,0,0,0,4.06,1.39A69.49,69.49,0,0,1,81.68,6c38.13,0,69.15,30.43,69.15,67.85s-31,67.84-69.15,67.84S12.6,111.23,12.6,73.82A66.81,66.81,0,0,1,22.9,38.29V52.43a2.44,2.44,0,1,0,4.87,0V36L39.64,47.64a2.59,2.59,0,0,0,3.6,0,2.28,2.28,0,0,0,0-3.37L31.48,32.87H48.14a2.39,2.39,0,1,0,0-4.78H31.05A68.19,68.19,0,0,1,42.89,17.88a3.09,3.09,0,0,0,.81-4.27,3.13,3.13,0,0,0-4.25-.85,74.13,74.13,0,0,0-11.68,9.51V7.68a2.44,2.44,0,1,0-4.87,0V24L11.07,12.48a2.62,2.62,0,0,0-3.62,0,2.76,2.76,0,0,0,0,3.76L19.25,28.09H2.53a2.39,2.39,0,1,0,0,4.78H19.28a72.26,72.26,0,0,0-6.91,69.75,73.21,73.21,0,0,0,16.12,23.43,74.91,74.91,0,0,0,23.91,15.8,76.81,76.81,0,0,0,58.56,0A75,75,0,0,0,134.88,126,73.66,73.66,0,0,0,151,102.55a72.81,72.81,0,0,0,0-57.47Z">
		<animate attributeName="fill" dur="2s" repeatCount="indefinite" values="#ff50a0;#ff99be;#ff50a0" />
	</path>
	<path class="cls-2" d="M37.11,87.91a2.25,2.25,0,0,1-2.23-2.23V61.57A2.16,2.16,0,0,1,35.54,60a2.18,2.18,0,0,1,1.57-.67h1a3.49,3.49,0,0,1,1.88.55,3.25,3.25,0,0,1,1.25,1.45l6.85,14.8s0,0,0,0,0,0,0,0L55,61.33a3.25,3.25,0,0,1,1.25-1.45,3.49,3.49,0,0,1,1.88-.55h1.14a2.29,2.29,0,0,1,2.23,2.24V85.68a2.27,2.27,0,0,1-2.23,2.23h-.86a2.25,2.25,0,0,1-2.23-2.23v-17a0,0,0,0,0,0,0,0,0,0,0,0,0,0L51.4,78.71a3.63,3.63,0,0,1-1.31,1.47,3.38,3.38,0,0,1-1.86.57H48a3.38,3.38,0,0,1-1.86-.57,3.63,3.63,0,0,1-1.31-1.47l-4.7-10.06a0,0,0,0,0,0,0s0,0,0,0v17a2.18,2.18,0,0,1-.67,1.57,2.16,2.16,0,0,1-1.57.66Z">
		<animate attributeName="fill" dur="4s" repeatCount="indefinite" values="#ff50a0;#ff99be;#ff50a0" />
	</path>
	<path class="cls-2" d="M76.92,88.31q-5.13,0-7.89-2.69t-2.76-7.88q0-5.17,2.47-7.87t7.12-2.71q8.7,0,8.93,9.87a1.92,1.92,0,0,1-.67,1.57,2.43,2.43,0,0,1-1.64.62H71.79q-.36,0-.27.36a5.38,5.38,0,0,0,1.74,3.81,6.63,6.63,0,0,0,4.28,1.2A15.11,15.11,0,0,0,81.46,84a1.5,1.5,0,0,1,1.31.23,1.36,1.36,0,0,1,.61,1.18A2.51,2.51,0,0,1,82.85,87a2.22,2.22,0,0,1-1.39.85A21.85,21.85,0,0,1,76.92,88.31Zm-1-17.5a4.07,4.07,0,0,0-3.07,1.11,6,6,0,0,0-1.35,3.58.28.28,0,0,0,.31.32H79.5a.29.29,0,0,0,.32-.32Q79.66,70.81,75.94,70.81Z">
		<animate attributeName="fill" dur="4s" repeatCount="indefinite" values="#ff50a0;#ff99be;#ff50a0" />
	</path>
	<path class="cls-2" d="M91.31,87.91a2.27,2.27,0,0,1-2.23-2.23V69.79a2.27,2.27,0,0,1,2.23-2.23h.51a2.16,2.16,0,0,1,1.59.64,2.27,2.27,0,0,1,.68,1.59v.27a0,0,0,0,0,0,0,.1.1,0,0,0,.08,0,8.23,8.23,0,0,1,6.23-2.9c2.37,0,4.1.68,5.18,2s1.63,3.58,1.63,6.71v9.79A2.27,2.27,0,0,1,105,87.91h-.67a2.11,2.11,0,0,1-1.55-.66,2.19,2.19,0,0,1-.64-1.57V76.29a7.43,7.43,0,0,0-.77-4,3.11,3.11,0,0,0-2.72-1.07,4.73,4.73,0,0,0-4.34,4.3V85.68a2.27,2.27,0,0,1-2.23,2.23Z">
		<animate attributeName="fill" dur="4s" repeatCount="indefinite" values="#ff50a0;#ff99be;#ff50a0" />
	</path>
	<path class="cls-2" d="M118,88.31c-2.3,0-4-.64-5-1.9S111.41,83,111.41,80V69.79a2.27,2.27,0,0,1,2.23-2.23h.63a2.25,2.25,0,0,1,2.23,2.23v9.63a7,7,0,0,0,.75,3.8,2.84,2.84,0,0,0,2.5,1,4.21,4.21,0,0,0,3-1.37A4.1,4.1,0,0,0,124.14,80V69.79a2.25,2.25,0,0,1,2.23-2.23h.78a2.1,2.1,0,0,1,1.55.66,2.18,2.18,0,0,1,.64,1.57V85.68a2.19,2.19,0,0,1-.64,1.57,2.1,2.1,0,0,1-1.55.66h-.51a2.15,2.15,0,0,1-1.58-.64,2.33,2.33,0,0,1-.69-1.59l0-.27s0,0,0,0a.12.12,0,0,0-.08,0A8.21,8.21,0,0,1,118,88.31Z">
		<animate attributeName="fill" dur="4s" repeatCount="indefinite" values="#ff50a0;#ff99be;#ff50a0" />
	</path>
	<path class="cls-2" d="M35.32,102.76a1.4,1.4,0,0,1,1-.4H81.08a1.4,1.4,0,0,1,1,.4,1.34,1.34,0,0,1,.39,1,1.36,1.36,0,0,1-1.36,1.36H36.29a1.37,1.37,0,0,1-1.37-1.36A1.4,1.4,0,0,1,35.32,102.76Z">
		<animate attributeName="fill" dur="2s" repeatCount="indefinite" values="#ff50a0;#ff99be;#ff50a0" />
	</path>
	<path class="cls-2" d="M82.8,50.23a1.4,1.4,0,0,1,1-.4h44.8a1.37,1.37,0,0,1,1.36,1.37,1.36,1.36,0,0,1-1.36,1.36H83.76a1.36,1.36,0,0,1-1-2.33Z">
		<animate attributeName="fill" dur="2s" repeatCount="indefinite" values="#ff50a0;#ff99be;#ff50a0" />
	</path>
</svg>