<svg xmlns="http://www.w3.org/2000/svg" width="160.83" height="166.53" viewBox="0 0 160.83 166.53"><defs><style>.cls-1{fill:#fff;}.cls-2{fill:#ffe2ef;}.cls-3{fill:#ff50a0;}</style></defs><title>アセット 13</title><g id="レイヤー_2" data-name="レイヤー 2"><g id="Layer_1" data-name="Layer 1"><path class="cls-1" d="M78.14,166.53,4,92.42,78.14,18.3l74.11,74.12Z"/><path class="cls-2" d="M14,80.42,80.42,14l66.41,66.42Z"/><path class="cls-3" d="M80.42,160.83,0,80.42,80.42,0l80.41,80.42Zm-72-80.41,72,72,72-72-72-72Z"/><path class="cls-3" d="M51.31,70.27a2.2,2.2,0,0,1-1.57-.65,2.1,2.1,0,0,1-.66-1.55V68a2.16,2.16,0,0,1,.66-1.57,2.18,2.18,0,0,1,1.57-.67H68A2.29,2.29,0,0,1,70.22,68v.11a2.07,2.07,0,0,1-.67,1.55,2.16,2.16,0,0,1-1.56.65H62.74c-.21,0-.31.11-.31.35V92.07a2.18,2.18,0,0,1-.67,1.57,2.16,2.16,0,0,1-1.57.66H59.1a2.25,2.25,0,0,1-2.23-2.23V70.62c0-.24-.11-.35-.32-.35Z"/><path class="cls-3" d="M85.47,91.94a9.54,9.54,0,0,1-7.3,2.76,9.54,9.54,0,0,1-7.3-2.76q-2.61-2.77-2.61-7.81t2.61-7.82a9.54,9.54,0,0,1,7.3-2.76,9.54,9.54,0,0,1,7.3,2.76q2.61,2.76,2.61,7.82T85.47,91.94ZM81.63,79a4.49,4.49,0,0,0-6.92,0,9,9,0,0,0-1.16,5.15,9,9,0,0,0,1.16,5.14,4.49,4.49,0,0,0,6.92,0,9,9,0,0,0,1.16-5.14A9,9,0,0,0,81.63,79Z"/><path class="cls-3" d="M94.69,102.92a2.18,2.18,0,0,1-1.57-.67,2.13,2.13,0,0,1-.66-1.56V76.18A2.25,2.25,0,0,1,94.69,74h.47a2.21,2.21,0,0,1,1.6.64,2.26,2.26,0,0,1,.71,1.59v.27s0,0,0,0a.12.12,0,0,0,.08,0,9,9,0,0,1,2.81-2.23,7.7,7.7,0,0,1,3.29-.67,7.13,7.13,0,0,1,5.88,2.76q2.19,2.76,2.19,7.82a12,12,0,0,1-2.29,7.73,7.13,7.13,0,0,1-5.78,2.84,8.17,8.17,0,0,1-5.91-2.47.1.1,0,0,0-.08,0,0,0,0,0,0,0,0v8.46a2.15,2.15,0,0,1-.64,1.56,2.1,2.1,0,0,1-1.55.67Zm2.93-21.46v5.33A3.64,3.64,0,0,0,99,89.57a4.56,4.56,0,0,0,3.15,1.21,3.86,3.86,0,0,0,3.29-1.68,8.55,8.55,0,0,0,1.21-5q0-6.66-4.5-6.66A4.56,4.56,0,0,0,99,78.68,3.64,3.64,0,0,0,97.62,81.46Z"/></g></g></svg>