<svg xmlns="http://www.w3.org/2000/svg" width="156.91" height="155.76" viewBox="0 0 156.91 155.76">
	<defs>
		<style>.cls-1{fill:#fff;}.cls-2{fill:#ff50a0;}</style>
	</defs>
	<title>btn_close</title>
	<circle class="cls-1" cx="77.4" cy="84.34" r="71.42"/>
	<path class="cls-2" d="M151,45.08a73.66,73.66,0,0,0-16.12-23.46A75.12,75.12,0,0,0,111,5.8,76.74,76.74,0,0,0,48.88,7.37a3,3,0,0,0-1.41,4,3.06,3.06,0,0,0,4.06,1.39A69.49,69.49,0,0,1,81.68,6c38.13,0,69.15,30.43,69.15,67.85s-31,67.84-69.15,67.84S12.6,111.23,12.6,73.82A66.81,66.81,0,0,1,22.9,38.29V52.43a2.44,2.44,0,1,0,4.87,0V36L39.64,47.64a2.59,2.59,0,0,0,3.6,0,2.28,2.28,0,0,0,0-3.37L31.48,32.87H48.14a2.39,2.39,0,1,0,0-4.78H31.05A68.19,68.19,0,0,1,42.89,17.88a3.09,3.09,0,0,0,.81-4.27,3.13,3.13,0,0,0-4.25-.85,74.13,74.13,0,0,0-11.68,9.51V7.68a2.44,2.44,0,1,0-4.87,0V24L11.07,12.48a2.62,2.62,0,0,0-3.62,0,2.76,2.76,0,0,0,0,3.76L19.25,28.09H2.53a2.39,2.39,0,1,0,0,4.78H19.28a72.26,72.26,0,0,0-6.91,69.75,73.21,73.21,0,0,0,16.12,23.43,74.91,74.91,0,0,0,23.91,15.8,76.81,76.81,0,0,0,58.56,0A75,75,0,0,0,134.88,126,73.66,73.66,0,0,0,151,102.55a72.81,72.81,0,0,0,0-57.47Z"/>
	<path class="cls-2" d="M64.53,50.37a1.32,1.32,0,0,1,.4-1L96.6,17.74a1.36,1.36,0,0,1,1.93,1.92L66.85,51.34a1.36,1.36,0,0,1-2.32-1Z"/>
	<path class="cls-2" d="M65.89,17.34a1.35,1.35,0,0,1,1,.39L98.53,49.41a1.39,1.39,0,0,1,.4,1,1.35,1.35,0,0,1-.4,1,1.37,1.37,0,0,1-1.93,0L64.93,19.66a1.36,1.36,0,0,1,1-2.32Z"/>
	<path class="cls-2" d="M64.53,129.32a1.36,1.36,0,0,1,.4-1L96.6,96.69a1.36,1.36,0,0,1,1.93,0,1.37,1.37,0,0,1,0,1.93L66.85,130.29a1.36,1.36,0,0,1-2.32-1Z"/>
	<path class="cls-2" d="M65.89,96.29a1.32,1.32,0,0,1,1,.4l31.68,31.67a1.39,1.39,0,0,1,.4,1,1.35,1.35,0,0,1-.4,1,1.37,1.37,0,0,1-1.93,0L64.93,98.62a1.35,1.35,0,0,1,0-1.93A1.32,1.32,0,0,1,65.89,96.29Z"/>
	<path class="cls-2" d="M47.24,88.89q-6.19,0-9.81-3.82T33.81,74.21q0-7,3.5-10.83t9.81-3.85a27.49,27.49,0,0,1,4.85.35,2.47,2.47,0,0,1,1.57.94,2.73,2.73,0,0,1,.63,1.76v.31a1.5,1.5,0,0,1-.69,1.3,1.76,1.76,0,0,1-1.47.27,16.74,16.74,0,0,0-4.3-.51,7.49,7.49,0,0,0-6.09,2.66c-1.48,1.78-2.21,4.31-2.21,7.6s.76,5.79,2.29,7.57a7.64,7.64,0,0,0,6.12,2.69A18.28,18.28,0,0,0,52.25,84a1.73,1.73,0,0,1,1.47.27,1.49,1.49,0,0,1,.68,1.29v.28a2.7,2.7,0,0,1-.61,1.74,2.45,2.45,0,0,1-1.58.92A29.06,29.06,0,0,1,47.24,88.89Z"/>
	<path class="cls-2" d="M62,88.5a2.11,2.11,0,0,1-1.57-.67,2.14,2.14,0,0,1-.67-1.56V61.37A2.29,2.29,0,0,1,62,59.13h1a2.29,2.29,0,0,1,2.24,2.24v24.9A2.29,2.29,0,0,1,63,88.5Z"/>
	<path class="cls-2" d="M86.41,86.13a9.57,9.57,0,0,1-7.31,2.76,9.56,9.56,0,0,1-7.3-2.76q-2.6-2.76-2.6-7.81t2.6-7.81a9.56,9.56,0,0,1,7.3-2.76,9.57,9.57,0,0,1,7.31,2.76Q89,73.27,89,78.32T86.41,86.13Zm-3.84-13a4.52,4.52,0,0,0-6.93,0,9,9,0,0,0-1.16,5.15,9,9,0,0,0,1.16,5.15,4.52,4.52,0,0,0,6.93,0,9,9,0,0,0,1.15-5.15A9,9,0,0,0,82.57,73.17Z"/>
	<path class="cls-2" d="M99.64,80.28a13.12,13.12,0,0,1-5.86-2.47,5.66,5.66,0,0,1,.36-8.48q2.08-1.58,6.2-1.58a27.66,27.66,0,0,1,5.13.47,2.16,2.16,0,0,1,1.39.84,2.54,2.54,0,0,1,.53,1.59,1.44,1.44,0,0,1-.59,1.19,1.46,1.46,0,0,1-1.33.25,19.24,19.24,0,0,0-4.62-.54c-2.35,0-3.52.65-3.52,2A2.08,2.08,0,0,0,98,75.07a4.93,4.93,0,0,0,2.27,1q4.5.9,6.17,2.43a5.73,5.73,0,0,1,1.66,4.46A5.12,5.12,0,0,1,106,87.32a10.19,10.19,0,0,1-6.15,1.57,23.88,23.88,0,0,1-5.36-.63,2.32,2.32,0,0,1-1.41-.92,2.63,2.63,0,0,1-.55-1.66,1.26,1.26,0,0,1,.61-1.14,1.55,1.55,0,0,1,1.31-.19,18.06,18.06,0,0,0,4.82.7c2.37,0,3.56-.7,3.56-2.11a2,2,0,0,0-.69-1.61A6.45,6.45,0,0,0,99.64,80.28Z"/>
	<path class="cls-2" d="M121.77,88.89c-3.42,0-6-.89-7.88-2.68s-2.76-4.42-2.76-7.89.82-6.07,2.46-7.87,4-2.7,7.13-2.7q8.69,0,8.92,9.86a1.88,1.88,0,0,1-.66,1.57,2.4,2.4,0,0,1-1.65.63H116.65c-.24,0-.33.11-.28.35A5.44,5.44,0,0,0,118.11,84a6.71,6.71,0,0,0,4.29,1.19,15.11,15.11,0,0,0,3.92-.59,1.47,1.47,0,0,1,1.31.24,1.36,1.36,0,0,1,.6,1.17,2.55,2.55,0,0,1-.52,1.59,2.28,2.28,0,0,1-1.39.84A22,22,0,0,1,121.77,88.89Zm-1-17.5a4.09,4.09,0,0,0-3.08,1.11,6,6,0,0,0-1.35,3.59.28.28,0,0,0,.32.31h7.67a.27.27,0,0,0,.31-.31C124.57,73,123.28,71.39,120.8,71.39Z"/>
</svg>