<svg xmlns="http://www.w3.org/2000/svg" width="242.48" height="29.77" viewBox="0 0 242.48 29.77"><defs><style>.cls-1{fill:#ff50a0;}</style></defs><title>アセット 6</title><g id="レイヤー_2" data-name="レイヤー 2"><g id="Layer_1" data-name="Layer 1"><path class="cls-1" d="M0,28.05a1.66,1.66,0,0,1,.52-1.18L28.21.47A1.68,1.68,0,1,1,30.53,2.9L2.84,29.31A1.68,1.68,0,0,1,0,28.05Z"/><path class="cls-1" d="M19.22,28.05a1.71,1.71,0,0,1,.52-1.18L47.43.47A1.68,1.68,0,1,1,49.75,2.9L22.07,29.31a1.68,1.68,0,0,1-2.38-.06A1.63,1.63,0,0,1,19.22,28.05Z"/><path class="cls-1" d="M38.44,28.05A1.71,1.71,0,0,1,39,26.87L66.65.47A1.68,1.68,0,0,1,69,2.9L41.29,29.31a1.69,1.69,0,0,1-2.85-1.26Z"/><path class="cls-1" d="M57.66,28.05a1.71,1.71,0,0,1,.52-1.18L85.87.47A1.68,1.68,0,1,1,88.2,2.9L60.51,29.31a1.69,1.69,0,0,1-2.85-1.26Z"/><path class="cls-1" d="M76.88,28.05a1.71,1.71,0,0,1,.52-1.18L105.09.47a1.68,1.68,0,1,1,2.33,2.43L79.73,29.31a1.69,1.69,0,0,1-2.85-1.26Z"/><path class="cls-1" d="M96.1,28.05a1.71,1.71,0,0,1,.52-1.18L124.31.47A1.71,1.71,0,0,1,125.52,0a1.69,1.69,0,0,1,1.12,2.9L99,29.31a1.69,1.69,0,0,1-2.85-1.26Z"/><path class="cls-1" d="M115.32,28.05a1.71,1.71,0,0,1,.52-1.18L143.53.47A1.71,1.71,0,0,1,144.74,0a1.69,1.69,0,0,1,1.12,2.9L118.17,29.31a1.69,1.69,0,0,1-2.85-1.26Z"/><path class="cls-1" d="M134.55,28.05a1.66,1.66,0,0,1,.52-1.18L162.75.47A1.71,1.71,0,0,1,164,0a1.69,1.69,0,0,1,1.12,2.9L137.39,29.31a1.68,1.68,0,0,1-2.38-.06A1.62,1.62,0,0,1,134.55,28.05Z"/><path class="cls-1" d="M153.77,28.05a1.66,1.66,0,0,1,.52-1.18L182,.47a1.67,1.67,0,0,1,1.2-.47,1.68,1.68,0,0,1,1.12,2.9L156.61,29.31a1.68,1.68,0,0,1-2.84-1.26Z"/><path class="cls-1" d="M173,28.05a1.66,1.66,0,0,1,.52-1.18L201.2.47A1.67,1.67,0,0,1,202.4,0a1.68,1.68,0,0,1,1.12,2.9L175.83,29.31A1.68,1.68,0,0,1,173,28.05Z"/><path class="cls-1" d="M192.21,28.05a1.66,1.66,0,0,1,.52-1.18L220.42.47a1.67,1.67,0,0,1,1.2-.47,1.68,1.68,0,0,1,1.12,2.9L195.05,29.31a1.68,1.68,0,0,1-2.84-1.26Z"/><path class="cls-1" d="M211.43,28.05a1.66,1.66,0,0,1,.52-1.18L239.64.47a1.67,1.67,0,0,1,1.2-.47A1.68,1.68,0,0,1,242,2.9L214.27,29.31a1.68,1.68,0,0,1-2.84-1.26Z"/></g></g></svg>