<?xml version="1.0" encoding="utf-8"?>
<!-- Generator: Adobe Illustrator 23.0.1, SVG Export Plug-In . SVG Version: 6.00 Build 0)  -->
<svg version="1.1" id="レイヤー_1" xmlns="http://www.w3.org/2000/svg" xmlns:xlink="http://www.w3.org/1999/xlink" x="0px"
	 y="0px" width="60px" height="60px" viewBox="0 0 60 60" style="enable-background:new 0 0 60 60;" xml:space="preserve">
<style type="text/css">
	.st0{fill:#FF50A0;}
	.st1{opacity:0.2;}
	.st2{opacity:0.5;}
	.st3{opacity:0.3;}
</style>
<g>
	<path class="st0" d="M30,8.2c7.1,0,7.9,0,10.8,0.2c2.6,0.1,4,0.6,4.9,0.9c1.2,0.5,2.1,1.1,3.1,2c0.9,0.9,1.5,1.8,2,3.1
		c0.4,0.9,0.8,2.3,0.9,4.9c0.1,2.8,0.2,3.6,0.2,10.8s0,7.9-0.2,10.8c-0.1,2.6-0.6,4-0.9,4.9c-0.5,1.2-1.1,2.1-2,3.1
		c-0.9,0.9-1.8,1.5-3.1,2c-0.9,0.4-2.3,0.8-4.9,0.9c-2.8,0.1-3.6,0.2-10.8,0.2s-7.9,0-10.8-0.2c-2.6-0.1-4-0.6-4.9-0.9
		c-1.2-0.5-2.1-1.1-3.1-2c-0.9-0.9-1.5-1.8-2-3.1c-0.4-0.9-0.8-2.3-0.9-4.9C8.2,37.9,8.2,37.1,8.2,30s0-7.9,0.2-10.8
		c0.1-2.6,0.6-4,0.9-4.9c0.5-1.2,1.1-2.1,2-3.1c0.9-0.9,1.8-1.5,3.1-2c0.9-0.4,2.3-0.8,4.9-0.9C22.1,8.2,22.9,8.2,30,8.2 M30,3.4
		c-7.2,0-8.1,0-11,0.2c-2.8,0.1-4.8,0.6-6.5,1.2c-1.8,0.7-3.2,1.6-4.7,3.1c-1.5,1.5-2.4,3-3.1,4.7c-0.7,1.7-1.1,3.6-1.2,6.5
		c-0.1,2.8-0.2,3.7-0.2,11c0,7.2,0,8.1,0.2,11c0.1,2.8,0.6,4.8,1.2,6.5c0.7,1.8,1.6,3.2,3.1,4.7c1.5,1.5,3,2.4,4.7,3.1
		c1.7,0.7,3.6,1.1,6.5,1.2c2.8,0.1,3.7,0.2,11,0.2s8.1,0,11-0.2c2.8-0.1,4.8-0.6,6.5-1.2c1.8-0.7,3.2-1.6,4.7-3.1
		c1.5-1.5,2.4-3,3.1-4.7c0.7-1.7,1.1-3.6,1.2-6.5c0.1-2.8,0.2-3.7,0.2-11s0-8.1-0.2-11c-0.1-2.8-0.6-4.8-1.2-6.5
		c-0.7-1.8-1.6-3.2-3.1-4.7c-1.5-1.5-3-2.4-4.7-3.1c-1.7-0.7-3.6-1.1-6.5-1.2C38.1,3.4,37.2,3.4,30,3.4L30,3.4z"/>
	<path class="st0" d="M30,16.3c-7.5,0-13.7,6.1-13.7,13.7c0,7.5,6.1,13.7,13.7,13.7S43.7,37.5,43.7,30C43.7,22.5,37.5,16.3,30,16.3z
		 M30,38.9c-4.9,0-8.9-4-8.9-8.9c0-4.9,4-8.9,8.9-8.9s8.9,4,8.9,8.9C38.9,34.9,34.9,38.9,30,38.9z"/>
	<circle class="st0" cx="44.2" cy="15.8" r="3.2"/>
</g>
</svg>
