<svg xmlns="http://www.w3.org/2000/svg" width="52.01" height="57.67" viewBox="0 0 52.01 57.67"><defs><style>.cls-1{fill:#ff50a1;}</style></defs><title>icon_out</title><g id="レイヤー_2" data-name="レイヤー 2"><g id="Layer_1" data-name="Layer 1"><path class="cls-1" d="M36.41,0C27.82,0,20.84,6.28,20.84,14a2.88,2.88,0,0,0,5.74,0c0-4.75,4.38-8.62,9.76-8.62S46.1,9.25,46.1,14V43.67c0,4.75-4.38,8.62-9.76,8.62s-9.76-3.87-9.76-8.62a2.9,2.9,0,0,0-5.78,0c0,7.72,7,14,15.61,14S52,51.39,52,43.67V14C52,6.28,45,0,36.41,0Z"/><path class="cls-1" d="M8.89,31.44H39a2.6,2.6,0,0,0,0-5.2H8.89l5.75-5.76a2.59,2.59,0,0,0,.77-1.84,2.62,2.62,0,0,0-.77-1.84,2.61,2.61,0,0,0-3.68,0L.77,27A2.62,2.62,0,0,0,0,28.84a2.51,2.51,0,0,0,.77,1.83L11,40.87a2.61,2.61,0,0,0,3.68-3.69Z"/></g></g></svg>