<?xml version="1.0" encoding="utf-8"?>
<!-- Generator: Adobe Illustrator 23.0.1, SVG Export Plug-In . SVG Version: 6.00 Build 0)  -->
<svg version="1.1" id="レイヤー_1" xmlns="http://www.w3.org/2000/svg" xmlns:xlink="http://www.w3.org/1999/xlink" x="0px"
	 y="0px" width="60px" height="60px" viewBox="0 0 60 60" style="enable-background:new 0 0 60 60;" xml:space="preserve">
<style type="text/css">
	.st0{fill:#FF50A0;}
	.st1{opacity:0.2;}
	.st2{opacity:0.5;}
	.st3{opacity:0.3;}
</style>
<g>
	<path class="st0" d="M47.6,29.7c-1-0.6-2.1-1.1-3.3-1.5c-0.3-0.1-0.4-0.1-0.5-0.2c-0.1,0-0.2-0.1-0.4-0.2c-0.1-0.1-0.2-0.2-0.1-0.4
		c0.1-0.1,0.1-0.4,0.1-0.6c0.9-2.4,0.9-4.3,0-5.6c-1-1.3-2.6-1.9-4.8-1.9c-2.3,0-4.9,0.6-7.8,1.9l-0.2,0.1c-0.1,0-0.3,0.1-0.4,0.1
		c-0.2,0-0.3,0-0.5,0c-0.1,0-0.3-0.1-0.3-0.2c-0.1-0.1-0.1-0.3,0-0.6c0.9-3.1,0.7-5.3-0.6-6.6c-1.6-1.6-4.2-1.6-7.8-0.2
		c-3.6,1.4-7.2,3.9-10.8,7.5c-2.7,2.7-4.8,5.4-6.3,8.2C2.4,32,1.7,34.6,1.7,37c0,2.3,0.7,4.4,2.1,6.3c1.4,1.9,3.2,3.5,5.4,4.8
		c2.2,1.3,4.8,2.2,7.6,2.9c2.8,0.7,5.7,1.1,8.7,1.1c3,0,5.8-0.3,8.6-1c2.7-0.7,5.1-1.5,7.2-2.6c2-1.1,3.8-2.3,5.3-3.7
		c1.5-1.4,2.7-2.8,3.5-4.3c0.8-1.5,1.2-3,1.2-4.4c0-1.4-0.4-2.6-1.1-3.7C49.4,31.2,48.6,30.3,47.6,29.7L47.6,29.7z M37.3,44.3
		c-3.1,2.5-7,4-11.7,4.5c-3.1,0.3-6,0.1-8.7-0.7c-2.7-0.7-4.9-1.9-6.6-3.5c-1.7-1.6-2.6-3.4-2.8-5.4c-0.3-3.1,1.1-5.9,4.2-8.4
		c3.1-2.5,7-4,11.7-4.5c3.1-0.3,6-0.1,8.7,0.7c2.7,0.7,4.9,1.9,6.6,3.5c1.7,1.6,2.6,3.4,2.8,5.4C41.7,39,40.3,41.8,37.3,44.3
		L37.3,44.3z M37.3,44.3"/>
	<path class="st0" d="M31.5,34.9c-1-1.9-2.7-3.2-5-3.8c-2.2-0.6-4.5-0.4-6.7,0.6c-2.2,1-3.8,2.4-4.8,4.4c-1,2-1.1,4-0.2,5.9
		c0.9,2,2.4,3.3,4.7,4c2.3,0.8,4.7,0.6,7.1-0.4c2.4-1,4.1-2.6,5-4.8C32.5,38.8,32.5,36.8,31.5,34.9z M23.1,41.4
		c-0.5,0.7-1.1,1.2-2,1.5c-0.9,0.3-1.6,0.3-2.4-0.1c-0.7-0.3-1.2-0.9-1.4-1.6c-0.2-0.7-0.1-1.5,0.4-2.2c0.4-0.7,1.1-1.2,1.9-1.5
		c0.8-0.3,1.6-0.3,2.3,0c0.7,0.3,1.2,0.8,1.4,1.6C23.6,39.9,23.5,40.7,23.1,41.4z M26.1,37.6c-0.1,0.3-0.4,0.5-0.7,0.6
		c-0.3,0.1-0.6,0.1-0.9,0c-0.6-0.3-0.8-0.8-0.4-1.4c0.1-0.3,0.4-0.5,0.7-0.6c0.3-0.1,0.6-0.1,0.9,0c0.3,0.1,0.5,0.3,0.6,0.6
		C26.3,37,26.2,37.3,26.1,37.6z"/>
	<path class="st0" d="M47,23.7c0.2,0.5,0.6,0.8,1.1,0.9c0.5,0.1,1,0.1,1.4-0.1c0.5-0.2,0.8-0.6,0.9-1.1c0.4-1.2,0.5-2.4,0.2-3.7
		c-0.3-1.3-0.8-2.4-1.7-3.4c-0.9-1-2-1.7-3.2-2.1c-1.2-0.4-2.5-0.4-3.8-0.2c-0.5,0.1-0.9,0.4-1.2,0.8c-0.3,0.4-0.4,0.9-0.3,1.4
		c0.1,0.5,0.3,0.9,0.8,1.2c0.4,0.3,0.9,0.4,1.4,0.3c1.3-0.3,2.5,0.1,3.4,1.1c0.9,1,1.2,2.2,0.8,3.5C46.7,22.7,46.7,23.2,47,23.7
		L47,23.7z M47,23.7"/>
	<path class="st0" d="M58.2,18.1c-0.5-2.7-1.7-5-3.6-7c-1.8-2-4-3.5-6.6-4.3c-2.6-0.8-5.1-0.9-7.7-0.4c-0.6,0.1-1.1,0.4-1.4,0.9
		c-0.3,0.5-0.4,1-0.3,1.6c0.1,0.6,0.4,1.1,0.9,1.4c0.5,0.3,1.1,0.4,1.6,0.3c1.8-0.4,3.7-0.3,5.5,0.3c1.8,0.6,3.4,1.6,4.7,3
		c1.3,1.4,2.2,3.1,2.5,5c0.4,1.9,0.3,3.7-0.3,5.4c-0.2,0.6-0.1,1.1,0.2,1.6c0.3,0.5,0.7,0.9,1.3,1.1c0.6,0.2,1.1,0.1,1.6-0.1
		c0.5-0.3,0.9-0.7,1.1-1.3C58.6,23.3,58.7,20.8,58.2,18.1L58.2,18.1z M58.2,18.1"/>
</g>
</svg>
