<svg xmlns="http://www.w3.org/2000/svg" width="125.94" height="120" viewBox="0 0 125.94 120"><defs><style>.cls-1{fill:#ff50a0;}.cls-2{fill:#fff;}</style></defs><title>icon_line</title><g id="レイヤー_2" data-name="レイヤー 2"><g id="Layer_1" data-name="Layer 1"><g id="FULL_COLOR_ICON" data-name="FULL COLOR ICON"><g id="TYPE_A" data-name="TYPE A"><path class="cls-1" d="M125.94,51.1C125.94,22.92,97.69,0,63,0S0,22.92,0,51.1c0,25.26,22.4,46.42,52.66,50.42,2.05.44,4.85,1.35,5.55,3.1.64,1.6.42,4.09.2,5.7,0,0-.73,4.44-.89,5.39-.28,1.59-1.27,6.22,5.45,3.39s36.27-21.35,49.48-36.56h0c9.13-10,13.5-20.16,13.5-31.44"/><path class="cls-2" d="M50.18,37.49H45.76a1.22,1.22,0,0,0-1.23,1.22V66.15a1.23,1.23,0,0,0,1.23,1.22h4.42a1.22,1.22,0,0,0,1.22-1.22V38.71a1.22,1.22,0,0,0-1.22-1.22"/><path class="cls-2" d="M80.58,37.49H76.16a1.21,1.21,0,0,0-1.22,1.22V55L62.36,38l-.09-.12h0l-.08-.08,0,0-.06,0,0,0-.06,0,0,0-.06,0,0,0-.07,0h0l-.07,0H56.92a1.22,1.22,0,0,0-1.22,1.22V66.15a1.22,1.22,0,0,0,1.22,1.22h4.42a1.23,1.23,0,0,0,1.23-1.22V49.85l12.59,17a1,1,0,0,0,.31.31h0l.08,0,0,0,.06,0,.06,0h0l.08,0h0a1.06,1.06,0,0,0,.31,0h4.42a1.23,1.23,0,0,0,1.23-1.22V38.71a1.22,1.22,0,0,0-1.23-1.22"/><path class="cls-2" d="M39.53,60.5h-12V38.71a1.23,1.23,0,0,0-1.23-1.23H21.88a1.23,1.23,0,0,0-1.22,1.23V66.15h0A1.2,1.2,0,0,0,21,67s0,0,0,0l0,0a1.2,1.2,0,0,0,.84.34H39.53a1.22,1.22,0,0,0,1.22-1.22V61.73a1.22,1.22,0,0,0-1.22-1.23"/><path class="cls-2" d="M105,44.36a1.23,1.23,0,0,0,1.23-1.23V38.71A1.22,1.22,0,0,0,105,37.49H87.32a1.23,1.23,0,0,0-.85.34h0l0,0a1.2,1.2,0,0,0-.34.84h0V66.15h0a1.19,1.19,0,0,0,.34.84l0,0,0,0a1.2,1.2,0,0,0,.84.34H105a1.23,1.23,0,0,0,1.23-1.22V61.73A1.23,1.23,0,0,0,105,60.5H93V55.86h12a1.23,1.23,0,0,0,1.23-1.22V50.22A1.23,1.23,0,0,0,105,49H93V44.36Z"/></g></g></g></g></svg>