<svg xmlns="http://www.w3.org/2000/svg" width="64.86mm" height="64.86mm" viewBox="0 0 183.85 183.85"><title>qr_image</title><g id="レイヤー_2" data-name="レイヤー 2"><g id="content"><g id="mobile_site"><g id="qr_area"><g id="QR"><path d="M0,22.19V44.38H44.38V0H0V22.19Zm38,0V38H6.34V6.34H38V22.19Z"/><path d="M50.72,6.34v6.34h6.34V6.34H63.4v6.34h6.33V19h6.34V6.34h6.34v6.34h6.34V6.34h12.68V19H88.75V31.7H76.07V44.38H69.73V31.7H63.4V19H50.72v6.34h6.34V38H50.72V50.72h-19V63.4H38v6.33H50.72V82.41H63.4v6.34h6.33V82.41H82.41V69.73h6.34V63.4h12.68V76.07H88.75V88.75H82.41v6.34h6.34v19H82.41v-6.34H76.07v-6.34H50.72v50.72h6.34v6.34H50.72v12.68h6.34v6.34H50.72v6.34H63.4V171.17h6.33v6.34h6.34v6.34h25.36v-6.34h6.34v-6.34h-6.34v6.34H88.75v-6.34h6.34v-6.34H88.75v-6.34H82.41v6.34H76.07v6.34H69.73v-6.34H63.4v-6.34h6.33v-6.34H57.06V139.47H63.4v6.34H76.07v-6.34H63.4V126.79h6.33v6.34h6.34v-6.34H69.73v-6.34H57.06v-6.34H69.73v-6.34h6.34v6.34h6.34v19H95.09v6.34H88.75v6.34H82.41v6.34h19V139.47h12.68v12.68h-6.34v6.34h6.34v-6.34h6.34v-6.34h6.34v12.68h-6.34v6.34h-6.34v6.34h6.34v-6.34h6.34v19h12.68v-6.34h-6.34V164.83h6.34v-6.34h6.34v12.68h6.34v-6.34h12.68v6.34h-6.34v6.34h6.34v-6.34h6.34v12.68h6.34V171.17h6.34v-6.34h-6.34v-6.34h6.34v-6.34h-6.34v6.34h-6.34v-6.34h-6.34V139.47h6.34v6.34h6.34v-6.34h6.34v-6.34H171.17v-19h6.34v-19h6.34V82.41H171.17V76.07H158.49V69.73h-6.34v6.34h6.34v6.34h6.34V95.09h6.34v12.68h-6.34v-6.34H152.15V95.09h6.34V88.75h-6.34v6.34H139.47V88.75h6.34V82.41h-6.34v6.34h-6.34v6.34h-6.34V82.41h-6.34V76.07H107.77V69.73h12.68V63.4h6.34V76.07h6.34v-19H120.45V38h6.34V50.72h6.34v-19h-6.34V25.36h-6.34V38h-6.34v6.34h-6.34V31.7h6.34V19h6.34V12.68h-6.34V6.34h19V0H107.77V6.34h-6.34V0H50.72V6.34Zm63.39,9.51V19h-6.34v6.34h-6.34V31.7H95.09V38h6.34v6.34H95.09V57.06H88.75V50.72H82.41v19H76.07v6.34H69.73v6.34H63.4V76.07h6.33V69.73h6.34V57.06H69.73V63.4H63.4v6.33H50.72V63.4h6.34V57.06H50.72V50.72h6.34V38H63.4v6.34h6.33v6.34H82.41V38h6.34V31.7h6.34V25.36h6.34V19h6.34V12.68h6.34v3.17Zm-6.34,41.21V63.4h-6.34V50.72h6.34v6.34ZM44.38,60.23V63.4H38V57.06h6.34v3.17Zm63.39,19v3.17h12.68v6.34H107.77V82.41h-6.34v6.34H95.09v6.34h6.34v6.34H95.09V95.09H88.75V88.75h6.34V82.41h6.34V76.07h6.34v3.17Zm6.34,22.19v6.34h6.34v-6.34h6.34v19h6.34V107.77h6.34v-6.34h-6.34V95.09h6.34v6.34h6.34v6.34h12.68v6.34h6.34v12.68H152.15V114.11H139.47v12.68H126.79v12.68h-6.34V126.79h6.34v-6.34h-6.34v-6.34H107.77v-19h6.34v6.34Zm-12.68,9.51v3.17H95.09v-6.34h6.34v3.17Zm6.34,12.68v3.17h-6.34v6.34H95.09V120.45h12.68v3.17Zm44.38,19v9.51h-19v-19h19v9.51Zm12.68,12.68v3.17h6.34v6.34h6.34v6.34h-6.34v-6.34h-6.34v-6.34h-6.34v-6.34h6.34v3.17Zm-82.42,19v3.17H76.07v-6.34h6.34v3.17Z"/><path d="M139.47,22.19V44.38h44.38V0H139.47V22.19Zm38,0V38h-31.7V6.34h31.7V22.19Z"/><polygon points="0 57.05 0 63.4 6.34 63.4 12.68 63.4 12.68 60.23 12.68 57.05 15.85 57.05 19.02 57.05 19.02 63.4 19.02 69.73 22.19 69.73 25.36 69.73 25.36 60.23 25.36 50.72 19.02 50.72 12.68 50.72 12.68 53.89 12.68 57.05 9.51 57.05 6.34 57.05 6.34 53.89 6.34 50.72 3.17 50.72 0 50.72 0 57.05 0 57.05"/><polygon points="139.47 60.23 139.47 69.73 142.64 69.73 145.81 69.73 145.81 66.56 145.81 63.4 152.15 63.4 158.49 63.4 158.49 60.23 158.49 57.05 161.66 57.05 164.83 57.05 164.83 53.89 164.83 50.72 161.66 50.72 158.49 50.72 158.49 53.89 158.49 57.05 152.15 57.05 145.81 57.05 145.81 53.89 145.81 50.72 142.64 50.72 139.47 50.72 139.47 60.23 139.47 60.23"/><polygon points="171.17 53.89 171.17 57.05 174.34 57.05 177.51 57.05 177.51 60.23 177.51 63.4 171.17 63.4 164.83 63.4 164.83 66.56 164.83 69.73 171.17 69.73 177.51 69.73 177.51 72.9 177.51 76.07 180.68 76.07 183.84 76.07 183.84 72.9 183.84 69.73 180.68 69.73 177.51 69.73 177.51 66.56 177.51 63.4 180.68 63.4 183.84 63.4 183.84 57.05 183.84 50.72 177.51 50.72 171.17 50.72 171.17 53.89 171.17 53.89"/><path d="M0,76.07v6.34H12.68v6.34H6.34v6.34H0v6.34H6.34v6.34H0v6.34H6.34v6.34H0v12.68H6.34v-6.34h6.34V114.11H6.34v-6.34H19v6.34h6.34V101.43H31.7v12.68H38v6.34h6.34v-6.34H38v-6.34h6.34v-6.34H38V95.09h19V88.75H38V82.41h6.34V76.07H31.7v6.34H25.36V76.07H19v6.34H12.68V76.07H6.34V69.73H0v6.34ZM19,91.92v3.17H12.68v6.34H6.34V95.09h6.34V88.75H19v3.17Zm19,0v3.17H31.7V88.75H38v3.17Z"/><polygon points="19.02 126.79 19.02 133.13 25.36 133.13 31.7 133.13 31.7 126.79 31.7 120.45 25.36 120.45 19.02 120.45 19.02 126.79 19.02 126.79"/><polygon points="38.04 129.96 38.04 133.13 41.21 133.13 44.38 133.13 44.38 129.96 44.38 126.79 41.21 126.79 38.04 126.79 38.04 129.96 38.04 129.96"/><path d="M0,161.66v22.19H44.38V139.47H0v22.19Zm38,0v15.85H6.34v-31.7H38v15.85Z"/><polygon points="12.68 22.19 12.68 31.7 22.19 31.7 31.7 31.7 31.7 22.19 31.7 12.68 22.19 12.68 12.68 12.68 12.68 22.19 12.68 22.19"/><polygon points="88.75 41.21 88.75 44.38 91.92 44.38 95.09 44.38 95.09 41.21 95.09 38.04 91.92 38.04 88.75 38.04 88.75 41.21 88.75 41.21"/><polygon points="57.05 53.89 57.05 57.05 60.23 57.05 63.4 57.05 63.4 53.89 63.4 50.72 60.23 50.72 57.05 50.72 57.05 53.89 57.05 53.89"/><polygon points="139.47 142.64 139.47 145.81 142.64 145.81 145.81 145.81 145.81 142.64 145.81 139.47 142.64 139.47 139.47 139.47 139.47 142.64 139.47 142.64"/><polygon points="152.15 22.19 152.15 31.7 161.66 31.7 171.17 31.7 171.17 22.19 171.17 12.68 161.66 12.68 152.15 12.68 152.15 22.19 152.15 22.19"/><polygon points="12.68 161.66 12.68 171.17 22.19 171.17 31.7 171.17 31.7 161.66 31.7 152.15 22.19 152.15 12.68 152.15 12.68 161.66 12.68 161.66"/></g></g></g></g></g></svg>