<svg xmlns="http://www.w3.org/2000/svg" viewBox="0 0 480 480">
	<g id="item_ticket" data-name="">
		<rect class="cls-1" width="480" height="480" />
		<rect class="cls-2" x="152.19" y="198.49" width="85.37" height="10.51" transform="translate(-86.99 197.47) rotate(-45)"/>
		<rect class="cls-2" x="168.83" y="222.02" width="52.1" height="10.51" transform="translate(-103.63 204.37) rotate(-45)"/>
		<rect class="cls-2" x="214.87" y="192.61" width="18.83" height="10.51" transform="translate(-74.22 216.56) rotate(-45)"/>
		<rect class="cls-2" x="178.15" y="227.9" width="68.74" height="10.51" transform="translate(-102.62 218.57) rotate(-45)"/>
		<rect class="cls-2" x="196.01" y="254.37" width="27.15" height="10.51" transform="translate(-122.2 224.25) rotate(-45)"/>
		<path class="cls-2" d="M119.8,247.86l75.08,75.08L299.36,218.45l-75.07-75.07Zm104.49-89.62,60.21,60.21-89.62,89.62-60.21-60.21Z"/>
		<path class="cls-2" d="M327.22,122.79l-12.54,12.54a7.22,7.22,0,0,1-10.21-10.21L317,112.58l-31-31-57.43,57.43,75.07,75.07,57.43-57.43Zm-35.38,7.43a17.73,17.73,0,0,0,30.27,12.54l5.11-5.1,19,19-42.57,42.57-60.21-60.21,42.57-42.57,16.09,16.1-5.1,5.11A17.59,17.59,0,0,0,291.84,130.22Z"/>
		<rect class="cls-2" x="252.39" y="119.09" width="43.78" height="10.51" transform="translate(-7.58 230.38) rotate(-45)"/>
		<path class="cls-3" d="M161,381.5h26.65v3.4h-11.3V418h-4V384.9H161Z"/>
		<path class="cls-4" d="M197.09,386v-5.5h3.85V386Zm0,32V392h3.85v26Z"/>
		<path class="cls-4" d="M223.65,394.55a8.78,8.78,0,0,0-6.86,2.72q-2.44,2.73-2.45,7.73a11,11,0,0,0,2.58,7.65,8.65,8.65,0,0,0,6.73,2.85,14.09,14.09,0,0,0,6.69-1.7l1,2.95a18.28,18.28,0,0,1-7.85,1.75,12.59,12.59,0,0,1-9.4-3.68q-3.6-3.66-3.6-9.82c0-4.23,1.16-7.54,3.45-9.93s5.49-3.57,9.55-3.57a18.28,18.28,0,0,1,7.85,1.75l-1,3.05A14.28,14.28,0,0,0,223.65,394.55Z"/>
		<path class="cls-4" d="M243.66,380.5V403h.1L256.86,392h4.75l-14.85,12.35L261.86,418h-4.75l-13.35-12.25h-.1V418H240V380.5Z"/>
		<path class="cls-4" d="M270,406.4a9.32,9.32,0,0,0,2.6,6.7,8.92,8.92,0,0,0,6.5,2.45,16.3,16.3,0,0,0,7.65-2l1,2.85a19.85,19.85,0,0,1-9,2.1,11.9,11.9,0,0,1-9.05-3.65q-3.45-3.64-3.45-9.85t3.23-9.9a11.18,11.18,0,0,1,8.77-3.6c3.6,0,6.4,1.14,8.38,3.42s3,5.56,3,9.83a16.26,16.26,0,0,1-.1,1.65Zm0-2.9h16a10,10,0,0,0-2.1-6.7,7.09,7.09,0,0,0-5.65-2.35,7.63,7.63,0,0,0-5.92,2.37A10.09,10.09,0,0,0,270,403.5Z"/>
		<path class="cls-4" d="M305.59,383.5V393h9.85v3h-9.85v13.65c0,2.33.31,3.89,1,4.67s1.81,1.18,3.55,1.18a11.57,11.57,0,0,0,4.4-.85l.6,3a16.4,16.4,0,0,1-5.5.9q-4.26,0-6-1.83t-1.75-6.32V396h-5.75v-3h5.75v-9.5Z"/>
	</g>
</svg>