<svg xmlns="http://www.w3.org/2000/svg" viewBox="0 0 480 480">
	<!--
	<defs>
		<style>
			.cls-1{fill:#fff;}.cls-2{fill:#ffe2ef;}.cls-3{fill:#ff50a0;}.cls-4{fill:#777;}
		</style>
	</defs>
	<title>thumbnail_dearizone_birthday</title>
	-->
	<g id="item_dearizone_birthday" data-name="">
		<rect class="cls-1" width="480" height="480"/>
		<path  class="cls-2" d="M260.41,54.27a14.93,14.93,0,0,0-10.27-4.45H250a17.28,17.28,0,0,0-10.45,4.26,17.33,17.33,0,0,0-10.46-4.26h-.16a15,15,0,0,0-10.31,4.45,14.35,14.35,0,0,0-4.41,13c1.74,12.2,15,24.16,23.42,28.4a4.24,4.24,0,0,0,1.92.46,4.31,4.31,0,0,0,1.92-.46c8.41-4.24,21.65-16.19,23.38-28.37A14.33,14.33,0,0,0,260.41,54.27Zm-36,6.18,0-.05,0,0A6.66,6.66,0,0,1,229,58.28c3.09,0,6.17,3.27,7,4.43l0,0a4.28,4.28,0,0,0,3.48,1.79,4.22,4.22,0,0,0,2.47-.79,4.51,4.51,0,0,0,1-1c.92-1.24,4-4.45,7-4.48a6.68,6.68,0,0,1,4.49,2.08l0,0,.06,0a5.93,5.93,0,0,1,1.8,5.5l0,.11c-1,7.06-9.47,16.42-16.86,20.93-7.39-4.51-15.88-13.87-16.87-20.93l0-.11A5.9,5.9,0,0,1,224.42,60.45Z"/>
		<path  class="cls-2" d="M160.72,267.17A1.78,1.78,0,0,1,159,269H138.17a1.78,1.78,0,1,1,0-3.56H159a1.76,1.76,0,0,1,1.25.52A1.8,1.8,0,0,1,160.72,267.17Z"/>
		<path  class="cls-2" d="M195.17,256.18a1.78,1.78,0,0,1-1.78,1.78H172.61a1.78,1.78,0,0,1-1.78-1.78,1.78,1.78,0,0,1,1.78-1.78h20.78a1.78,1.78,0,0,1,1.78,1.78Z"/>
		<path  class="cls-2" d="M232.34,267.17a1.78,1.78,0,0,1-1.78,1.78H209.78a1.78,1.78,0,0,1,0-3.56h20.78a1.78,1.78,0,0,1,1.78,1.78Z"/>
		<path  class="cls-2" d="M268.6,256.18a1.78,1.78,0,0,1-1.78,1.78H246a1.78,1.78,0,0,1,0-3.56h20.78a1.78,1.78,0,0,1,1.78,1.78Z"/>
		<path  class="cls-2" d="M305.58,267.17A1.78,1.78,0,0,1,303.8,269H283a1.78,1.78,0,1,1,0-3.56H303.8a1.78,1.78,0,0,1,1.78,1.78Z"/>
		<path  class="cls-2" d="M341.49,256.18a1.78,1.78,0,0,1-1.78,1.78H318.93a1.78,1.78,0,1,1,0-3.56h20.78a1.79,1.79,0,0,1,1.78,1.78Z"/>
		<g id="Gradient_outline" data-name="">
			<path  class="cls-2" d="M113.66,190.84v86.23h-5.07a5.08,5.08,0,0,0-5.08,5.07V307.5H93.37a5.07,5.07,0,0,0-5.07,5.07,4.79,4.79,0,0,0,.26,1.6L98.7,344.61a5.08,5.08,0,0,0,4.81,3.47h273.9a5.08,5.08,0,0,0,4.81-3.47l10.15-30.44a5.08,5.08,0,0,0-3.21-6.41,5.17,5.17,0,0,0-1.61-.26H377.41V282.14a5.07,5.07,0,0,0-5.07-5.07h-5.08V190.84a5.07,5.07,0,0,0-5.07-5.07H260.75V104.62H220.17v81.15H201.5a20.18,20.18,0,0,0-32.68-23.42,20.18,20.18,0,0,0-32.69,23.42h-17.4A5.07,5.07,0,0,0,113.66,190.84ZM373.75,337.93H107.17l-6.77-20.29H380.52ZM113.66,307.5V287.21h253.6V307.5Zm243.46-30.43H123.8V235.93a35.46,35.46,0,0,0,55.8-6.54,35.5,35.5,0,0,0,60.86,0,35.52,35.52,0,0,0,60.87,0,35.44,35.44,0,0,0,55.79,6.54Zm-106.51-126-20.29,12.47V146.31l20.29-11.84Zm-20.29-36.29h20.29v10.92l-20.29,7.41Zm0,62,20.29-15.65v24.67H230.32ZM123.8,195.91H357.12v15.22a25.36,25.36,0,0,1-50.72,0,5.08,5.08,0,0,0-10.15,0,25.36,25.36,0,0,1-50.72,0,5.07,5.07,0,0,0-10.14,0,25.36,25.36,0,1,1-50.72,0,5.08,5.08,0,0,0-10.15,0,25.36,25.36,0,0,1-50.72,0Z"/>
			<path  class="cls-2" d="M275.66,156.46c-7.17,15.1,2.49,31.56,2.93,32.26l1.64,2.73,3.16-.46c.79-.11,19.67-3,26.84-18.13a19.13,19.13,0,1,0-34.57-16.4Zm25.92,12.3a25.61,25.61,0,0,1-16.27,12,25.6,25.6,0,0,1-1-20.19,9.56,9.56,0,1,1,17.28,8.2Z"/>
		</g>
		<path  class="cls-2" d="M324.91,151.67l2.61,2.6a20.5,20.5,0,0,1-25.77-2.6l-2.6-2.61A20.5,20.5,0,0,1,324.91,151.67Z"/>
		<path  class="cls-2" d="M286.79,131.5v-3.69a20.51,20.51,0,0,1,16.37,20.07v3.68A20.5,20.5,0,0,1,286.79,131.5Z"/>
		<path  class="cls-3" d="M113.05,399.78q0,9.45-4.9,14.35T94.05,419a48.72,48.72,0,0,1-8.85-.8v-35.9a50.82,50.82,0,0,1,8.85-.8q9.15,0,14.07,4.73T113.05,399.78Zm-19-14.9a24.68,24.68,0,0,0-4.85.45v29.9a24.68,24.68,0,0,0,4.85.45q15.15,0,15.15-15.9,0-7.39-3.85-11.15T94.05,384.88Z"/>
		<path  class="cls-4" d="M124.06,406.93a9.26,9.26,0,0,0,2.6,6.7,8.86,8.86,0,0,0,6.5,2.45,16.18,16.18,0,0,0,7.65-2l1,2.85a19.85,19.85,0,0,1-9,2.1,11.86,11.86,0,0,1-9-3.65q-3.45-3.64-3.45-9.85t3.23-9.9a11.18,11.18,0,0,1,8.77-3.6,10.53,10.53,0,0,1,8.38,3.43q3,3.42,3,9.82a16,16,0,0,1-.1,1.65Zm0-2.9h16a10,10,0,0,0-2.1-6.7,7.13,7.13,0,0,0-5.65-2.35,7.64,7.64,0,0,0-5.92,2.38A10.07,10.07,0,0,0,124.06,404Z"/>
		<path  class="cls-4" d="M161.32,392q5.44,0,7.8,2.25t2.35,7.4v9.85a32.83,32.83,0,0,0,.75,7h-3.5a28.49,28.49,0,0,1-.5-4.6h-.1a9.41,9.41,0,0,1-3.9,3.75,12.11,12.11,0,0,1-5.75,1.35,8,8,0,0,1-5.75-2,7.18,7.18,0,0,1-2.15-5.48,8,8,0,0,1,3.8-6.92q3.8-2.58,10.8-2.58h2.65v-.25q0-3.79-1.42-5.27c-1-1-2.65-1.48-5.08-1.48a17.47,17.47,0,0,0-8.75,2.3l-.65-2.95A19.36,19.36,0,0,1,161.32,392Zm-7.15,19.35a4.55,4.55,0,0,0,1.4,3.53,5.34,5.34,0,0,0,3.75,1.27,8.52,8.52,0,0,0,8.5-8.55v-2.8h-2.65c-3.5,0-6.21.6-8.12,1.78A5.39,5.39,0,0,0,154.17,411.38Z"/>
		<path  class="cls-4" d="M181.6,392.53h3.55l.11,5.55h.09q4.41-6,12.41-6.05v3.15a13,13,0,0,0-9,3.05,10.12,10.12,0,0,0-3.43,7.9v12.4H181.6Z"/>
		<path  class="cls-4" d="M201.19,418.53v-7h4.65v7Z"/>
		<path  class="cls-4" d="M217.82,418.53V382h4.35v36.5Z"/>
		<path  class="cls-4" d="M231.89,382h24.35v3.35l-19.65,29.7v.1h19.65v3.35H231.89v-3.35l19.65-29.7v-.1H231.89Z"/>
		<path  class="cls-4" d="M285.06,389.93l-8.25,2.6,5.15,6.9-2.6,1.9-5-7.05-4.95,7.05-2.6-1.9,5.15-6.9-8.25-2.6,1-3.05,8.2,2.8-.15-8.65H276l-.1,8.65,8.2-2.8Z"/>
		<path  class="cls-4" d="M322.14,413.91Q317.27,419,309.21,419t-12.95-5.12q-4.89-5.13-4.9-13.63t4.9-13.62q4.9-5.13,12.95-5.13t12.93,5.13q4.88,5.13,4.87,13.62T322.14,413.91Zm-12.93,1.77a12.81,12.81,0,0,0,10-4.17q3.76-4.17,3.77-11.23t-3.77-11.22a14.05,14.05,0,0,0-20,0q-3.78,4.17-3.78,11.22t3.78,11.23A12.86,12.86,0,0,0,309.21,415.68Z"/>
		<path  class="cls-4" d="M336.16,418.53V382h4.15l19,30h.1V382h3.9v36.5h-4.1l-19-30h-.1v30Z"/>
		<path  class="cls-4" d="M378.38,385.38v11.9h16.35v3.2H378.38v14.7h17.35v3.35H374.38V382h21.35v3.35Z"/>
	</g>
</svg>