<svg xmlns="http://www.w3.org/2000/svg" viewBox="0 0 480 480">
	<!--
	<defs>
		<style>.cls-1{fill:#fff;}.cls-2{fill:#ff50a0;}.cls-3{fill:#777;}.cls-4{fill:#ffe2ef;}</style>
	</defs>
	<title>thumbnail_download</title>
	-->
	<g id="item_download" data-name="">
		<rect class="cls-1" width="480" height="480"/>
		<path class="cls-2" d="M144.24,399.85q0,9.45-4.9,14.35t-14.1,4.9a49.63,49.63,0,0,1-8.85-.8V382.4a50.82,50.82,0,0,1,8.85-.8q9.15,0,14.07,4.73T144.24,399.85Zm-19-14.9a24.68,24.68,0,0,0-4.85.45v29.9a24.68,24.68,0,0,0,4.85.45q15.15,0,15.15-15.9,0-7.39-3.85-11.15T125.24,385Z"/>
		<path class="cls-3" d="M172.53,415.45a12.68,12.68,0,0,1-17.8,0q-3.36-3.65-3.35-9.85t3.35-9.85a12.68,12.68,0,0,1,17.8,0q3.34,3.64,3.35,9.85T172.53,415.45Zm-2.68-17.57a8.36,8.36,0,0,0-12.45,0c-1.52,1.85-2.27,4.42-2.27,7.72s.75,5.88,2.27,7.73a8.38,8.38,0,0,0,12.45,0q2.28-2.77,2.28-7.73T169.85,397.88Z"/>
		<path class="cls-3" d="M185.85,392.6l5.75,22.7h.1l5.55-22.7h5.15L208,415.3h.1l5.75-22.7h3.95l-7.4,26h-5l-5.55-22.35h-.1l-5.55,22.35h-5l-7.4-26Z"/>
		<path class="cls-3" d="M225.86,392.6h3.5l0,4.65h.1a11.11,11.11,0,0,1,3.82-3.77,9.69,9.69,0,0,1,5-1.38q4.39,0,6.52,2.73c1.42,1.81,2.13,4.69,2.13,8.62V418.6h-3.6V403.75q0-4.85-1.4-6.72t-4.81-1.88a6.87,6.87,0,0,0-5.29,2.88,10.09,10.09,0,0,0-2.4,6.67v13.9h-3.65Z"/>
		<path class="cls-3" d="M257.88,418.6V381.1h3.85v37.5Z"/>
		<path class="cls-3" d="M292.52,415.45a12.69,12.69,0,0,1-17.81,0q-3.34-3.65-3.35-9.85t3.35-9.85a12.69,12.69,0,0,1,17.81,0q3.35,3.64,3.34,9.85T292.52,415.45Zm-2.68-17.57a8.36,8.36,0,0,0-12.45,0q-2.28,2.78-2.28,7.72t2.28,7.73a8.38,8.38,0,0,0,12.45,0c1.52-1.85,2.27-4.43,2.27-7.73S291.36,399.73,289.84,397.88Z"/>
		<path class="cls-3" d="M313.78,392.1q5.45,0,7.8,2.25t2.35,7.4v9.85a32.83,32.83,0,0,0,.75,7h-3.5a28.49,28.49,0,0,1-.5-4.6h-.1a9.41,9.41,0,0,1-3.9,3.75,12.11,12.11,0,0,1-5.75,1.35,8,8,0,0,1-5.75-2A7.18,7.18,0,0,1,303,411.6a8,8,0,0,1,3.8-6.92q3.8-2.58,10.8-2.58h2.65v-.25q0-3.8-1.43-5.27t-5.07-1.48a17.47,17.47,0,0,0-8.75,2.3l-.65-2.95A19.36,19.36,0,0,1,313.78,392.1Zm-7.15,19.35A4.55,4.55,0,0,0,308,415a5.34,5.34,0,0,0,3.75,1.27,8.54,8.54,0,0,0,8.5-8.55v-2.8h-2.65q-5.25,0-8.13,1.78A5.4,5.4,0,0,0,306.63,411.45Z"/>
		<path class="cls-3" d="M332.75,405.6q0-6.56,2.8-10a9.33,9.33,0,0,1,7.7-3.48,9.05,9.05,0,0,1,8.4,4.75h.1V381.1h3.65v37.5h-3.5l0-4.4h-.1a9.1,9.1,0,0,1-8.5,4.9,9.33,9.33,0,0,1-7.65-3.52Q332.75,412.06,332.75,405.6Zm5.65-7.77q-2.06,2.71-2,7.77t2.1,7.78a7.15,7.15,0,0,0,11.17.07q2.13-2.65,2.13-7.5v-.7a11.73,11.73,0,0,0-2.13-7.45,7.15,7.15,0,0,0-11.22,0Z"/>
		<path class="cls-4" d="M228.85,256.71l.19.31A9.11,9.11,0,0,0,244,257l.14-.23,31.94-63.56a9.21,9.21,0,0,0,.6-9.44,9.1,9.1,0,0,0-8.12-5H252l-7.61-95.7a2.63,2.63,0,0,0-.47-1.29,9.11,9.11,0,0,0-14.92,0,2.71,2.71,0,0,0-.46,1.29L221,178.8h-16.5a9.18,9.18,0,0,0-7.61,14.26Zm-.46-66.14a2.57,2.57,0,0,0,2.56-2.3l.73-6.68L236.49,120l4.83,61.62.72,6.61a2.57,2.57,0,0,0,2.56,2.3h19.75L236.5,246l-27.86-55.41Zm93.4,23.53a6.28,6.28,0,0,0-6.26,6.29V266.1a21.22,21.22,0,0,1-21.15,21.25H184.67a21.22,21.22,0,0,1-21.15-21.25V219.64a6.26,6.26,0,1,0-12.51,0V266.1a33.79,33.79,0,0,0,33.66,33.83H294.38A33.79,33.79,0,0,0,328,266.1V220.39A6.27,6.27,0,0,0,321.79,214.1Z"/>
	</g>
</svg>