<svg xmlns="http://www.w3.org/2000/svg" viewBox="0 0 480 480">
	<!--
	<defs>
	<style>.cls-1{fill:#fff;}.cls-2{fill:#ff50a0;}.cls-3{fill:#777;}.cls-4{fill:#ffe2ef;}</style>
	</defs>
	<title>thumbnail_fromizone_camera</title>
	-->
	<g id="item_fromizone_camera" data-name="">
		<rect class="cls-1" width="480" height="480"/>
		<path class="cls-2" d="M93.37,384.85H76.53v12.4H92.37v3.2H76.53V418h-4V381.5H93.37Z"/>
		<path class="cls-3" d="M101.52,392h3.55l.1,5.55h.1q4.41-6,12.4-6.05v3.15a13,13,0,0,0-9,3.05,10.1,10.1,0,0,0-3.43,7.9V418h-3.75Z"/>
		<path class="cls-3" d="M144.75,414.85a12.68,12.68,0,0,1-17.8,0q-3.35-3.64-3.35-9.85t3.35-9.85a12.68,12.68,0,0,1,17.8,0q3.34,3.64,3.35,9.85T144.75,414.85Zm-2.68-17.58a8.38,8.38,0,0,0-12.45,0c-1.51,1.86-2.27,4.43-2.27,7.73s.76,5.88,2.27,7.72a8.36,8.36,0,0,0,12.45,0c1.52-1.84,2.28-4.42,2.28-7.72S143.59,399.13,142.07,397.27Z"/>
		<path class="cls-3" d="M156.69,392h3.5l.05,4.3h.1q2.76-4.8,6.85-4.8,5,0,7,5h.1q2.66-5,7.55-5c2.7,0,4.69.79,5.95,2.38s1.9,4.12,1.9,7.62V418h-3.6V402.5q0-4.54-1.15-6.28a4.32,4.32,0,0,0-3.9-1.72,5.19,5.19,0,0,0-4.2,2.4,9.47,9.47,0,0,0-1.8,5.85V418h-3.6V402.5q0-4.5-1.17-6.25a4.38,4.38,0,0,0-3.93-1.75q-2.25,0-4.12,2.63a10.51,10.51,0,0,0-1.88,6.27V418h-3.65Z"/>
		<path class="cls-3" d="M200.09,418v-7h4.65v7Z"/>
		<path class="cls-3" d="M227.24,418V381.5h4.35V418Z"/>
		<path class="cls-3" d="M241.31,381.5h24.35v3.35L246,414.55v.1h19.65V418H241.31v-3.35L261,385v-.1H241.31Z"/>
		<path class="cls-3" d="M294.48,389.4l-8.25,2.6,5.15,6.9-2.6,1.9-5-7.05-4.95,7.05-2.6-1.9,5.15-6.9-8.25-2.6,1-3,8.2,2.8-.15-8.65h3.2l-.1,8.65,8.2-2.8Z"/>
		<path class="cls-3" d="M331.56,413.38q-4.87,5.12-12.93,5.12t-12.95-5.12q-4.9-5.13-4.9-13.63t4.9-13.62q4.9-5.13,12.95-5.13t12.93,5.13q4.88,5.12,4.87,13.62T331.56,413.38Zm-12.93,1.77a12.8,12.8,0,0,0,10-4.18q3.76-4.17,3.77-11.22t-3.77-11.23a14.08,14.08,0,0,0-20,0q-3.78,4.19-3.78,11.23T308.61,411A12.82,12.82,0,0,0,318.63,415.15Z"/>
		<path class="cls-3" d="M345.58,418V381.5h4.15l19,30h.1v-30h3.9V418h-4.1l-19-30h-.1v30Z"/>
		<path class="cls-3" d="M387.8,384.85v11.9h16.35V400H387.8v14.7h17.35V418H383.8V381.5h21.35v3.35Z"/>
		<path class="cls-4" d="M310.14,174a60.51,60.51,0,0,0-17.09-16,62.08,62.08,0,0,0-32.92-9.47,63,63,0,0,0-13.56,1.5,62,62,0,0,0-25,11.73,4.53,4.53,0,0,0-1.75,3.1,4.58,4.58,0,0,0,.15,1.81,4.77,4.77,0,0,0-1.68-.31,4.9,4.9,0,0,0-1,.11,4.63,4.63,0,0,0-2.32,1.3,66.15,66.15,0,0,0-4.75,5.5l-1.4-6.39a4.12,4.12,0,0,0-4-3.29,4,4,0,0,0-.91.1,4.1,4.1,0,0,0-2.61,1.83,4.22,4.22,0,0,0-.53,3.15l1.65,7.54-6.66-4.15a4.21,4.21,0,0,0-2.24-.65,4.71,4.71,0,0,0-.92.1,4.25,4.25,0,0,0-2.66,1.83,4.43,4.43,0,0,0,1.28,6l6.68,4.29-7.73,1.71a4.23,4.23,0,0,0-2.65,1.79,4,4,0,0,0-.59,3.13,4.1,4.1,0,0,0,4.05,3.22,4.4,4.4,0,0,0,.95-.11l9-2A59.83,59.83,0,0,0,209.1,245a60.4,60.4,0,0,0,17.08,16,61.66,61.66,0,0,0,22,8.48,62.5,62.5,0,0,0,10.91,1,63.3,63.3,0,0,0,13.59-1.5,62.2,62.2,0,0,0,38.85-26.81,60.69,60.69,0,0,0,8.8-21.75A60.15,60.15,0,0,0,310.14,174ZM270.7,260a53.24,53.24,0,0,1-11.5,1.26c-24.34,0-45.73-17-50.87-40.42a50.54,50.54,0,0,1-.43-19.42l.44,2a4.14,4.14,0,0,0,4,3.3,4.61,4.61,0,0,0,.91-.1,4.11,4.11,0,0,0,2.6-1.81,4.21,4.21,0,0,0,.54-3.18L214.76,194l6.7,4.19a4.22,4.22,0,0,0,2.24.64,4.12,4.12,0,0,0,.92-.1,4.21,4.21,0,0,0,2.64-1.82,4.11,4.11,0,0,0,.6-3.13,4,4,0,0,0-1.86-2.58l-6.39-4,7.55-1.67a4.11,4.11,0,0,0-.8-8.14,4.42,4.42,0,0,0-1,.11l-7.93,1.75a46.18,46.18,0,0,1,4.2-5.07,4.58,4.58,0,0,0,1.27-3.34,4.73,4.73,0,0,0-.2-1.24,4.6,4.6,0,0,0,4.5-.68,53.05,53.05,0,0,1,21.29-10,54.15,54.15,0,0,1,11.53-1.26c24.35,0,45.76,17,50.9,40.41C317.07,226,299,253.7,270.7,260ZM163.55,188.77l-21.84-14a2.14,2.14,0,0,0-1.2-.36l-.33,0-.15,0a2.25,2.25,0,0,0-1.38,1l-14,21.92a2.22,2.22,0,0,0,.67,3l21.86,14a2.15,2.15,0,0,0,1.18.35l.33,0,.15,0a2.23,2.23,0,0,0,1.39-1l14-21.92A2.22,2.22,0,0,0,163.55,188.77Zm-17.12,14.82-11-7,7-11,11,7Zm230.08,38.18L351.75,129a18.54,18.54,0,0,0-18-14.49,18.35,18.35,0,0,0-4,.43l-21.27,4.7-9.78-21.14a23.15,23.15,0,0,0-21.17-13.62,24,24,0,0,0-5.12.56l-77.7,17.16a23.35,23.35,0,0,0-18.4,22.92l0,23.3-2.83.63-1.88-8.57a11.75,11.75,0,0,0-14-9l-32.77,7.24a11.81,11.81,0,0,0-9,14.08l1.88,8.57a18.51,18.51,0,0,0-13.37,21.85l24.77,112.79a18.53,18.53,0,0,0,18,14.5,19,19,0,0,0,4-.43l76.61-16.92a89.13,89.13,0,0,0,31.09,5.58h0a90,90,0,0,0,63.77-26.52l39.94-8.82A18.49,18.49,0,0,0,376.51,241.77ZM189,125.5a10.78,10.78,0,0,1,8.49-10.59l77.71-17.15a11.19,11.19,0,0,1,2.38-.26,10.68,10.68,0,0,1,9.76,6.29l8.61,18.6-6.06,1.34a89.07,89.07,0,0,0-31.08-5.58A90,90,0,0,0,195,144.67L188.94,146ZM159.5,144.37l1.7,7.76L130,159l-1.71-7.76ZM171.5,293l-11.12-50.66a6.35,6.35,0,0,0-6.15-5,6.16,6.16,0,0,0-1.36.15,6.31,6.31,0,0,0-4.8,7.53l11.12,50.66-10.83,2.39a5.78,5.78,0,0,1-6.92-4.43l-24.77-112.8a5.84,5.84,0,0,1,4.43-6.94l61.42-13.56a90.45,90.45,0,0,0,27.25,124.17ZM315.78,261.4a77.71,77.71,0,1,1-57-130.61,77.33,77.33,0,0,1,29.65,5.94A77.86,77.86,0,0,1,315.78,261.4Zm44-10L335,256.89a90.47,90.47,0,0,0-27.26-124.17l24.74-5.47a5.84,5.84,0,0,1,6.93,4.44l24.76,112.8A5.83,5.83,0,0,1,359.77,251.43Z"/>
	</g>
</svg>