<svg xmlns="http://www.w3.org/2000/svg" viewBox="0 0 480 480">
	<!--
	<defs><style>.cls-1{fill:#fff;}.cls-2{fill:#ff50a0;}.cls-3{fill:#777;}.cls-4{fill:#ffe2ef;}</style></defs><title>thumbnail_fromizone_write</title>
	-->
	<g id="item_fromizone_write" data-name="">
		<rect class="cls-1" width="480" height="480"/>
		<path class="cls-2" d="M92.47,385.16H75.62v12.4H91.47v3.2H75.62v17.55h-4v-36.5H92.47Z"/>
		<path class="cls-3" d="M100.61,392.31h3.55l.1,5.55h.1q4.41-6.06,12.4-6.05V395a12.94,12.94,0,0,0-9,3.05,10.09,10.09,0,0,0-3.43,7.9v12.4h-3.75Z"/>
		<path class="cls-3" d="M143.84,415.16a12.68,12.68,0,0,1-17.8,0q-3.35-3.66-3.35-9.85t3.35-9.85a12.68,12.68,0,0,1,17.8,0q3.34,3.65,3.35,9.85T143.84,415.16Zm-2.68-17.58a8.37,8.37,0,0,0-12.44,0q-2.28,2.78-2.28,7.73t2.28,7.72a8.35,8.35,0,0,0,12.44,0q2.28-2.77,2.28-7.72T141.16,397.58Z"/>
		<path class="cls-3" d="M155.78,392.31h3.5l.05,4.3h.1q2.76-4.8,6.85-4.8,5,0,7,5h.1q2.66-5,7.55-5c2.7,0,4.69.79,5.95,2.37s1.9,4.13,1.9,7.63v16.5h-3.6v-15.5q0-4.56-1.15-6.28a4.32,4.32,0,0,0-3.9-1.72,5.19,5.19,0,0,0-4.2,2.4,9.47,9.47,0,0,0-1.8,5.85v15.25h-3.6v-15.5c0-3-.39-5.09-1.17-6.25a4.38,4.38,0,0,0-3.93-1.75q-2.25,0-4.12,2.62a10.52,10.52,0,0,0-1.88,6.28v14.6h-3.65Z"/>
		<path class="cls-3" d="M199.18,418.31v-7h4.65v7Z"/>
		<path class="cls-3" d="M226.33,418.31v-36.5h4.35v36.5Z"/>
		<path class="cls-3" d="M240.4,381.81h24.35v3.35l-19.65,29.7v.1h19.65v3.35H240.4V415l19.65-29.7v-.1H240.4Z"/>
		<path class="cls-3" d="M293.57,389.71l-8.25,2.6,5.15,6.9-2.6,1.9-5-7.05-4.95,7.05-2.6-1.9,5.15-6.9-8.25-2.6,1-3,8.2,2.8-.15-8.65h3.2l-.1,8.65,8.2-2.8Z"/>
		<path class="cls-3" d="M330.65,413.68q-4.87,5.13-12.93,5.13t-13-5.13q-4.9-5.13-4.9-13.62t4.9-13.63q4.91-5.13,13-5.12t12.93,5.12q4.88,5.13,4.87,13.63T330.65,413.68Zm-12.93,1.78a12.84,12.84,0,0,0,10-4.18q3.76-4.17,3.77-11.22t-3.77-11.23a14.08,14.08,0,0,0-20,0q-3.78,4.17-3.78,11.23t3.78,11.22A12.85,12.85,0,0,0,317.72,415.46Z"/>
		<path class="cls-3" d="M344.67,418.31v-36.5h4.15l19,30h.1v-30h3.9v36.5h-4.1l-19-30h-.1v30Z"/>
		<path class="cls-3" d="M386.89,385.16v11.9h16.35v3.2H386.89V415h17.35v3.35H382.89v-36.5h21.35v3.35Z"/>
		<path class="cls-4" d="M369.38,96.48,340.72,67.93a5.54,5.54,0,0,0-4-1.62,5.79,5.79,0,0,0-4,1.62l-80.33,80.15-.23.22-.11.12c-.11.16-.28.33-.39.5s-.06.05-.06.11l-.28.45c-.05.05-.05.11-.11.17l-.17.44c0,.06-.05.06-.05.11l-14.31,43.05a5.53,5.53,0,0,0,1.35,5.71,5.68,5.68,0,0,0,4,1.62,6.83,6.83,0,0,0,1.8-.28l43-14.33c.06,0,.06,0,.11-.06a1.92,1.92,0,0,0,.51-.22.17.17,0,0,0,.11-.06l.56-.33c.17-.11.34-.28.5-.39s.12-.06.12-.12.17-.11.22-.22l80.38-80.2a5.54,5.54,0,0,0,0-7.89ZM250.91,186.14l7.91-23.73,15.88,15.84Zm34.17-13.38-20.76-20.71L336.74,79.8l20.75,20.7ZM118.57,188.67a5.91,5.91,0,0,0-4.23-1.72,6.43,6.43,0,0,0-4.48,1.84,6.23,6.23,0,0,0-.13,8.7L228.1,315.59a5.92,5.92,0,0,0,4.23,1.72,6.41,6.41,0,0,0,4.49-1.84,6.23,6.23,0,0,0,.12-8.7ZM339.14,197a6.29,6.29,0,0,0-4.47,1.86l-82.61,82.42L181,132.3a6.67,6.67,0,0,0-4.75-3.62,5.24,5.24,0,0,0-.88-.08,6.15,6.15,0,0,0-4.39,2.09l-41.23,41.14a6.26,6.26,0,0,0,0,8.86,6.18,6.18,0,0,0,4.4,1.83,6.34,6.34,0,0,0,4.48-1.87l34.91-34.83,70.83,148.7a6,6,0,0,0,4.51,3.39,7.72,7.72,0,0,0,1.36.11,6.12,6.12,0,0,0,4.39-1.64l88.92-88.73a6.24,6.24,0,0,0,1.87-4.41,6.13,6.13,0,0,0-1.83-4.45A6.2,6.2,0,0,0,339.14,197Z"/>
	</g>
</svg>
