<svg xmlns="http://www.w3.org/2000/svg" viewBox="0 0 480 480">
	<!--
	<defs><style>.cls-1{fill:#fff;}.cls-2{fill:#ff50a0;}.cls-3{fill:#777;}.cls-4{fill:#ffe2ef;}</style></defs><title>thumbnail_fromizone_create_2</title>
	-->
	<g id="item_fromizone_create" data-name="">
		<rect class="cls-1" width="480" height="480"/>
		<path class="cls-2" d="M94.54,385.26H77.69v12.4H93.54v3.2H77.69v17.55h-4v-36.5H94.54Z"/>
		<path class="cls-3" d="M102.69,392.41h3.55l.1,5.55h.1q4.4-6,12.4-6v3.15a13,13,0,0,0-9,3.05,10.11,10.11,0,0,0-3.42,7.9v12.4h-3.75Z"/>
		<path class="cls-3" d="M145.92,415.26a12.69,12.69,0,0,1-17.81,0q-3.35-3.64-3.35-9.85t3.35-9.85a12.69,12.69,0,0,1,17.81,0q3.35,3.66,3.34,9.85T145.92,415.26Zm-2.68-17.57a8.36,8.36,0,0,0-12.45,0q-2.28,2.78-2.28,7.72t2.28,7.73a8.38,8.38,0,0,0,12.45,0q2.26-2.77,2.27-7.73T143.24,397.69Z"/>
		<path class="cls-3" d="M157.86,392.41h3.5l0,4.3h.1q2.75-4.8,6.85-4.8,5,0,7,5h.1q2.64-5,7.55-5,4.05,0,6,2.38c1.26,1.58,1.9,4.12,1.9,7.62v16.5h-3.6v-15.5c0-3-.39-5.12-1.15-6.27a4.35,4.35,0,0,0-3.9-1.73,5.19,5.19,0,0,0-4.2,2.4,9.47,9.47,0,0,0-1.8,5.85v15.25h-3.6v-15.5q0-4.5-1.18-6.25a4.38,4.38,0,0,0-3.92-1.75q-2.25,0-4.13,2.63a10.5,10.5,0,0,0-1.87,6.27v14.6h-3.65Z"/>
		<path class="cls-3" d="M201.26,418.41v-7h4.65v7Z"/>
		<path class="cls-3" d="M228.41,418.41v-36.5h4.35v36.5Z"/>
		<path class="cls-3" d="M242.47,381.91h24.35v3.35L247.17,415v.1h19.65v3.35H242.47v-3.35l19.65-29.7v-.1H242.47Z"/>
		<path class="cls-3" d="M295.65,389.81l-8.25,2.6,5.15,6.9-2.6,1.9-5-7-4.95,7-2.6-1.9,5.15-6.9-8.25-2.6,1-3.05,8.2,2.8-.15-8.65h3.2l-.1,8.65,8.2-2.8Z"/>
		<path class="cls-3" d="M332.72,413.79q-4.87,5.11-12.92,5.12t-12.95-5.12q-4.91-5.13-4.9-13.63t4.9-13.62q4.89-5.13,12.95-5.13t12.92,5.13q4.88,5.11,4.88,13.62T332.72,413.79Zm-12.92,1.77a12.81,12.81,0,0,0,10-4.17q3.78-4.17,3.78-11.23t-3.78-11.22a14.05,14.05,0,0,0-20,0Q306,393.11,306,400.16t3.77,11.23A12.88,12.88,0,0,0,319.8,415.56Z"/>
		<path class="cls-3" d="M346.75,418.41v-36.5h4.15l19,30h.1v-30h3.9v36.5h-4.1l-19-30h-.1v30Z"/>
		<path class="cls-3" d="M389,385.26v11.9h16.35v3.2H389v14.7h17.35v3.35H385v-36.5h21.35v3.35Z"/>
		<path class="cls-4" d="M245.33,251.72h0a13.49,13.49,0,0,0-13.49,13.49h0a13.49,13.49,0,0,0,13.49,13.48h0a13.49,13.49,0,0,0,13.48-13.48h0A13.49,13.49,0,0,0,245.33,251.72Zm14.15-29.67v-.87a10.68,10.68,0,0,1,6.36-9.91,50.5,50.5,0,0,0,30.73-46.54c0-.19,0-.38,0-.57a50.57,50.57,0,0,0-101.13.57,13.49,13.49,0,1,0,27,0,23.6,23.6,0,1,1,47.19,0c0,.13,0,.26,0,.39a23.59,23.59,0,0,1-14.35,21.34,37.62,37.62,0,0,0-22.74,34.72v.87a13.49,13.49,0,1,0,27,0Z"/>
		<path class="cls-4" d="M378.17,140.64a143.42,143.42,0,0,0-194.5-73.21,5.79,5.79,0,0,0,5.05,10.42,130.45,130.45,0,0,1,57.42-13.14c72.63,0,131.71,59.09,131.71,131.71s-59.08,131.7-131.71,131.7S114.57,269,114.57,196.42a131.48,131.48,0,0,1,19.62-69v27.45a4.64,4.64,0,1,0,9.28,0V123.06l22.6,22.54a4.86,4.86,0,0,0,6.85,0,4.49,4.49,0,0,0,0-6.54l-22.4-22.13h31.72a4.64,4.64,0,1,0,0-9.28H149.71a130.2,130.2,0,0,1,22.56-19.81,6.08,6.08,0,0,0,1.54-8.28,5.89,5.89,0,0,0-8.1-1.66,141,141,0,0,0-22.24,18.45V68.05a4.64,4.64,0,1,0-9.28,0V99.76l-22.53-22.4a4.89,4.89,0,0,0-6.89,0,5.4,5.4,0,0,0,0,7.29l22.49,23H95.4a4.64,4.64,0,1,0,0,9.28h31.9a143.07,143.07,0,1,0,250.87,23.71Z"/>
	</g>
</svg>