<svg xmlns="http://www.w3.org/2000/svg" viewBox="0 0 480 480">
	<!--
	<defs>
		<style>
			.cls-1{fill:#fff;}
			.cls-2{fill:#ff50a0;}
			.cls-3{fill:#777;}
			.cls-4{fill:#ffe2ef;}
		</style>
	</defs>
	<title>thumbnail_dearizone</title>
	-->
	<g id="item_dearizone" data-name="">
		<rect class="cls-1" width="480" height="480"/>
		<path class="cls-2" d="M111,399.66q0,9.45-4.9,14.35T92,418.91a48.88,48.88,0,0,1-8.85-.8v-35.9a50.82,50.82,0,0,1,8.85-.8q9.15,0,14.08,4.73T111,399.66Zm-19-14.9a24.75,24.75,0,0,0-4.85.45v29.9a24.75,24.75,0,0,0,4.85.45q15.15,0,15.15-15.9,0-7.4-3.84-11.15T92,384.76Z"/>
		<path class="cls-3" d="M122,406.81a9.26,9.26,0,0,0,2.6,6.7,8.86,8.86,0,0,0,6.5,2.45,16.18,16.18,0,0,0,7.65-2l1,2.85a19.85,19.85,0,0,1-9,2.1,11.86,11.86,0,0,1-9-3.65q-3.45-3.64-3.45-9.85t3.22-9.9a11.2,11.2,0,0,1,8.78-3.6c3.6,0,6.39,1.15,8.37,3.43s3,5.56,3,9.82a16,16,0,0,1-.1,1.65Zm0-2.9h16a10,10,0,0,0-2.1-6.7,7.13,7.13,0,0,0-5.65-2.35,7.66,7.66,0,0,0-5.93,2.38A10.06,10.06,0,0,0,122,403.91Z"/>
		<path class="cls-3" d="M159.26,391.91q5.44,0,7.8,2.25t2.35,7.4v9.85a32.83,32.83,0,0,0,.75,7h-3.5a28.49,28.49,0,0,1-.5-4.6h-.1a9.41,9.41,0,0,1-3.9,3.75,12.11,12.11,0,0,1-5.75,1.35,8,8,0,0,1-5.75-2,7.18,7.18,0,0,1-2.15-5.48,8,8,0,0,1,3.8-6.92q3.8-2.58,10.8-2.58h2.65v-.25q0-3.8-1.43-5.27c-1-1-2.64-1.48-5.07-1.48a17.47,17.47,0,0,0-8.75,2.3l-.65-2.95A19.36,19.36,0,0,1,159.26,391.91Zm-7.15,19.35a4.55,4.55,0,0,0,1.4,3.53,5.34,5.34,0,0,0,3.75,1.27,8.54,8.54,0,0,0,8.5-8.55v-2.8h-2.65c-3.5,0-6.21.6-8.13,1.78A5.4,5.4,0,0,0,152.11,411.26Z"/>
		<path class="cls-3" d="M179.54,392.41h3.55l.1,5.55h.1q4.41-6,12.4-6v3.15a13,13,0,0,0-9,3.05,10.08,10.08,0,0,0-3.43,7.9v12.4h-3.75Z"/>
		<path class="cls-3" d="M199.12,418.41v-7h4.65v7Z"/>
		<path class="cls-3" d="M215.76,418.41v-36.5h4.35v36.5Z"/>
		<path class="cls-3" d="M229.83,381.91h24.35v3.35L234.53,415v.1h19.65v3.35H229.83v-3.35l19.65-29.7v-.1H229.83Z"/>
		<path class="cls-3" d="M283,389.81l-8.25,2.6,5.15,6.9-2.6,1.9-5-7-4.95,7-2.6-1.9,5.15-6.9-8.25-2.6,1-3.05,8.2,2.8-.15-8.65h3.2l-.1,8.65,8.2-2.8Z"/>
		<path class="cls-3" d="M320.08,413.79q-4.87,5.11-12.93,5.12t-12.95-5.12q-4.9-5.13-4.9-13.63t4.9-13.62q4.91-5.13,12.95-5.13t12.93,5.13q4.88,5.11,4.87,13.62T320.08,413.79Zm-12.93,1.77a12.83,12.83,0,0,0,10-4.17q3.76-4.18,3.77-11.23t-3.77-11.22a14.05,14.05,0,0,0-20,0q-3.78,4.17-3.78,11.22t3.78,11.23A12.84,12.84,0,0,0,307.15,415.56Z"/>
		<path class="cls-3" d="M334.1,418.41v-36.5h4.15l19,30h.1v-30h3.9v36.5h-4.1l-19-30h-.1v30Z"/>
		<path class="cls-3" d="M376.32,385.26v11.9h16.35v3.2H376.32v14.7h17.35v3.35H372.32v-36.5h21.35v3.35Z"/>
		<path class="cls-4" d="M389.42,113.37l0-.28a6.44,6.44,0,0,0-.73-2.06l0-.15-.31-.5a7.31,7.31,0,0,0-1.59-1.66,2,2,0,0,0-.38-.23,6.37,6.37,0,0,0-1.68-.82,5.78,5.78,0,0,0-.77-.19,7.13,7.13,0,0,0-1.55-.14h0a6,6,0,0,0-.77.06,2.62,2.62,0,0,0-.57.06L96.11,166.78A7.09,7.09,0,0,0,94.25,180L175,222.86l14.09,78.79a6.54,6.54,0,0,0,0,1.47c0,.29.08.56.14.82a6.64,6.64,0,0,0,.68,1.72,2,2,0,0,0,.26.53l.16.22.24.27a8,8,0,0,0,1,1.05l.16.14.1.08a2.76,2.76,0,0,0,.44.26,8.24,8.24,0,0,0,1.33.67l.45.16a7,7,0,0,0,2,.3h.31a6.64,6.64,0,0,0,4.73-2l53.15-35.7L310,308.2a7,7,0,0,0,10.41-3.5L389,116.88a7.3,7.3,0,0,0,.27-.94l.09-.43c0-.16.05-.31.07-.46A8.84,8.84,0,0,0,389.42,113.37ZM367.81,134,310.23,291.51,228,237.63Zm-159,151.16,10.86-36.12,21.73,14.23Zm99.28-124.45-96.6,71.57a5.63,5.63,0,0,0-.69.64c-.13.12-.26.24-.31.3s-.27.32-.4.49a5.83,5.83,0,0,0-.35.54,7.49,7.49,0,0,0-.57,1.13l-.09.12L198,271.73l-8.87-49.61Zm25.14-28.87L181.32,210.24l-63.21-33.59Z"/>
	</g>
</svg>