<svg xmlns="http://www.w3.org/2000/svg" viewBox="0 0 480 480">
	<!--
	<defs><style>.cls-1{fill:#fff;}.cls-2{fill:#ff50a0;}.cls-3{fill:#777;}.cls-4{fill:#ffe2ef;}</style></defs><title>thumbnail_izoneday</title>
	-->
	<g id="item_izoneday" data-name="">
		<rect class="cls-1" width="480" height="480"/>
		<path class="cls-2" d="M91.39,418.84v-36.5h4.35v36.5Z"/>
		<path class="cls-3" d="M105.45,382.34H129.8v3.35l-19.65,29.7v.1H129.8v3.35H105.45v-3.35l19.65-29.7v-.1H105.45Z"/>
		<path class="cls-3" d="M158.63,390.24l-8.25,2.6,5.15,6.9-2.6,1.9-5-7.05-5,7.05-2.6-1.9,5.15-6.9-8.25-2.6,1-3.05,8.2,2.8-.15-8.65h3.2l-.1,8.65,8.2-2.8Z"/>
		<path class="cls-3" d="M195.7,414.22q-4.87,5.11-12.93,5.12t-12.94-5.12q-4.91-5.13-4.91-13.63T169.83,387q4.89-5.13,12.94-5.13T195.7,387q4.88,5.11,4.88,13.62T195.7,414.22ZM182.77,416a12.81,12.81,0,0,0,10-4.17q3.78-4.19,3.77-11.23t-3.77-11.22a14.05,14.05,0,0,0-20,0Q169,393.54,169,400.59t3.78,11.23A12.87,12.87,0,0,0,182.77,416Z"/>
		<path class="cls-3" d="M209.72,418.84v-36.5h4.16l19,30H233v-30h3.91v36.5h-4.11l-19-30h-.1v30Z"/>
		<path class="cls-3" d="M251.94,385.69v11.9h16.35v3.2H251.94v14.7h17.35v3.35H247.94v-36.5h21.35v3.35Z"/>
		<path class="cls-3" d="M322.09,400.09q0,9.45-4.9,14.35t-14.1,4.9a49.63,49.63,0,0,1-8.85-.8v-35.9a50.82,50.82,0,0,1,8.85-.8q9.15,0,14.07,4.73T322.09,400.09Zm-19-14.9a24.75,24.75,0,0,0-4.85.45v29.9a24.75,24.75,0,0,0,4.85.45q15.15,0,15.15-15.9,0-7.39-3.85-11.15T303.09,385.19Z"/>
		<path class="cls-3" d="M326.66,418.84,340,382.34h4.5l13.3,36.5h-4.25l-3.7-10.65h-15.4l-3.65,10.65Zm8.9-13.85h13.2l-6.55-19.05h-.1Z"/>
		<path class="cls-3" d="M362.81,382.34,373.36,400h.1l10.6-17.7h4.55l-13.15,21.05v15.45h-4.2V403.39l-13.15-21.05Z"/>
		<path class="cls-4" d="M204.06,260.15V196.88H204l-19.53,17.85-5.24-12.94,24.88-23.1h16.08v81.46Z"/>
		<path class="cls-4" d="M238,247.54a280.58,280.58,0,0,0,23.49-20q8.2-8.08,11-13.45a24,24,0,0,0,2.79-11.16q0-12.39-13.29-12.38-9.59,0-21.42,7.7l-4.13-12.5a44,44,0,0,1,13-6,53.15,53.15,0,0,1,14.79-2.18q13,0,20.08,6.25t7,17.52a35.34,35.34,0,0,1-6.64,20.2q-6.65,9.71-25.95,25.78v.22h32.81v12.61H238Z"/>
		<path class="cls-4" d="M360,150.63V111.79c0-20.05-17.71-36.4-39.71-37h0v8.88h0v14a23.61,23.61,0,1,1-47.21,0v-23H206.15v23a23.61,23.61,0,0,1-47.22,0v-14h0V74.87h0C137.3,75.78,120,92,120,111.79V273.92a40.91,40.91,0,0,0,40.86,40.86h158.3A40.91,40.91,0,0,0,360,273.92V150.63Zm-17.78,123.3A23.11,23.11,0,0,1,319.15,297H160.85a23.1,23.1,0,0,1-23.07-23.07V144.12H342.23Z"/>
		<path class="cls-4" d="M171.14,68.39V99.27a11.41,11.41,0,1,0,22.81,0V68.39a11.41,11.41,0,1,0-22.81,0Z"/>
		<path class="cls-4" d="M296.7,57a11.4,11.4,0,0,0-11.41,11.4V99.27a11.41,11.41,0,0,0,22.82,0V68.39A11.41,11.41,0,0,0,296.7,57Z"/>
	</g>
</svg>