<svg xmlns="http://www.w3.org/2000/svg" viewBox="0 0 480 480">
	<!--
	<defs><style>.cls-1{fill:#fff;}.cls-2{fill:#ff50a0;}.cls-3{fill:#777;}.cls-4{fill:#ffe2ef;}</style></defs>
	<title>thumbnail_playroom</title>
	-->
	<g id="item_playroom" data-name="">
		<rect class="cls-1" width="480" height="480"/>
		<path class="cls-2" d="M110.61,382.64a67.18,67.18,0,0,1,10.15-.8q6.8,0,10.32,2.88t3.53,8.22q0,5.81-3.55,8.8t-10.3,3a58.92,58.92,0,0,1-6.15-.3v14.4h-4Zm4,18.5a42.17,42.17,0,0,0,5.85.4q5,0,7.57-2.15a7.49,7.49,0,0,0,2.63-6.15,7.32,7.32,0,0,0-2.58-6.07q-2.57-2.09-7.62-2.08a37.28,37.28,0,0,0-5.85.5Z"/>
		<path class="cls-3" d="M143.4,418.84v-37.5h3.85v37.5Z"/>
		<path class="cls-3" d="M167.53,392.34q5.44,0,7.8,2.25c1.56,1.5,2.35,4,2.35,7.4v9.85a32.83,32.83,0,0,0,.75,7h-3.5a28.49,28.49,0,0,1-.5-4.6h-.1a9.41,9.41,0,0,1-3.9,3.75,12.11,12.11,0,0,1-5.75,1.35,8,8,0,0,1-5.75-2,7.18,7.18,0,0,1-2.15-5.48,8,8,0,0,1,3.8-6.92q3.79-2.58,10.8-2.58H174v-.25q0-3.79-1.43-5.27t-5.07-1.48a17.44,17.44,0,0,0-8.75,2.3l-.65-2.95A19.25,19.25,0,0,1,167.53,392.34Zm-7.15,19.35a4.55,4.55,0,0,0,1.4,3.53,5.34,5.34,0,0,0,3.75,1.27,8.55,8.55,0,0,0,8.5-8.55v-2.8h-2.65q-5.25,0-8.13,1.78A5.4,5.4,0,0,0,160.38,411.69Z"/>
		<path class="cls-3" d="M188.65,392.84l7.75,21.4h.1l8.55-21.4H209l-15.5,37h-3.9l4.9-11.15-9.85-25.85Z"/>
		<path class="cls-3" d="M236.9,418.84V382.59a55.09,55.09,0,0,1,9.35-.75q7,0,10.58,2.58a8.47,8.47,0,0,1,3.57,7.32,9.8,9.8,0,0,1-2,6.35,10.42,10.42,0,0,1-5.8,3.5v.1c1.5.8,3,3,4.45,6.5l4.4,10.65h-4.15L253,408.29q-1.5-3.6-2.82-4.47t-5.23-.88h-4v15.9Zm4-19.1h4q6,0,8.75-1.92a6.51,6.51,0,0,0,2.8-5.73q0-7-10.55-7a26.64,26.64,0,0,0-5,.45Z"/>
		<path class="cls-3" d="M288.83,415.69a12.68,12.68,0,0,1-17.8,0q-3.34-3.65-3.35-9.85T271,396a12.68,12.68,0,0,1,17.8,0q3.35,3.64,3.35,9.85T288.83,415.69Zm-2.67-17.57a8.36,8.36,0,0,0-12.45,0q-2.28,2.78-2.28,7.72t2.28,7.73a8.38,8.38,0,0,0,12.45,0q2.26-2.77,2.27-7.73T286.16,398.12Z"/>
		<path class="cls-3" d="M320.5,415.69a12.68,12.68,0,0,1-17.8,0q-3.34-3.65-3.35-9.85T302.7,396a12.68,12.68,0,0,1,17.8,0q3.35,3.64,3.35,9.85T320.5,415.69Zm-2.67-17.57a8.36,8.36,0,0,0-12.45,0q-2.28,2.78-2.28,7.72t2.28,7.73a8.38,8.38,0,0,0,12.45,0q2.26-2.77,2.27-7.73T317.83,398.12Z"/>
		<path class="cls-3" d="M332.45,392.84H336l.05,4.3h.1q2.75-4.8,6.85-4.8,5,0,7,5h.1q2.64-5,7.55-5,4,0,5.95,2.38c1.26,1.58,1.9,4.12,1.9,7.62v16.5h-3.6v-15.5c0-3-.39-5.12-1.15-6.27a4.35,4.35,0,0,0-3.9-1.73,5.19,5.19,0,0,0-4.2,2.4,9.47,9.47,0,0,0-1.8,5.85v15.25h-3.6v-15.5c0-3-.4-5.08-1.18-6.25a4.36,4.36,0,0,0-3.92-1.75q-2.25,0-4.13,2.63a10.5,10.5,0,0,0-1.87,6.27v14.6h-3.65Z"/>
		<path class="cls-4" d="M292.2,74.1H186.85A18.86,18.86,0,0,0,168,93v214.3a18.86,18.86,0,0,0,18.82,18.85H292.2A18.85,18.85,0,0,0,311,307.25V93A18.85,18.85,0,0,0,292.2,74.1Zm4,233.15a4.07,4.07,0,0,1-4,4.09H186.85a4.06,4.06,0,0,1-4-4.09V259.53h113.4Zm0-62.49H182.83V119.94h113.4Zm0-139.59H182.83V93a4.06,4.06,0,0,1,4-4.09H292.2a4.07,4.07,0,0,1,4,4.09ZM211.08,305.39a19.52,19.52,0,1,0-19.48-19.51A19.52,19.52,0,0,0,211.08,305.39Zm0-24.26a4.75,4.75,0,1,1-4.69,4.75A4.73,4.73,0,0,1,211.08,281.13Zm41.72,11.33a7.39,7.39,0,1,0-7.39-7.39A7.39,7.39,0,0,0,252.8,292.46Zm14.73.55a7.39,7.39,0,1,0,7.4,7.38A7.38,7.38,0,0,0,267.53,293Zm15.22,0a7.38,7.38,0,1,0-7.4-7.38A7.39,7.39,0,0,0,282.75,293Zm-15.22-15.28a7.38,7.38,0,1,0-7.39-7.38A7.39,7.39,0,0,0,267.53,277.71Zm-35.2-92.4a2.63,2.63,0,0,0,.14.83l.57,1.71a2.32,2.32,0,0,1-1.48,2.92,2.27,2.27,0,0,1-.72.12,2.3,2.3,0,0,1-2.2-1.6,2.19,2.19,0,0,1,0-1.43l.57-1.72a2.61,2.61,0,0,0-2.49-3.45H214.36a2.62,2.62,0,0,0-2.63,2.62V218.2a2.63,2.63,0,0,0,2.63,2.63h65.91a2.63,2.63,0,0,0,2.63-2.63V152.41a2.63,2.63,0,0,0-2.63-2.62H247.32a2.63,2.63,0,0,0-2.63,2.62v12.34a2.64,2.64,0,0,0,3.46,2.49l1.72-.58a2.46,2.46,0,0,1,.72-.11,2.31,2.31,0,0,1,.72,4.51,2.57,2.57,0,0,1-.72.11,2.46,2.46,0,0,1-.72-.11l-1.72-.57a2.61,2.61,0,0,0-3.46,2.48v9.72H235A2.62,2.62,0,0,0,232.33,185.31Zm17.61-8.91c.23,0,.45,0,.68,0A7.4,7.4,0,0,0,255,175a7.56,7.56,0,0,0-4.4-13.71l-.69,0V155h27.7v27.65h-6.3a7.63,7.63,0,0,0-.83-4.14,7.5,7.5,0,0,0-4.44-3.71,7.39,7.39,0,0,0-2.28-.36,7.55,7.55,0,0,0-7.22,5.29,7.8,7.8,0,0,0-.32,2.92h-6.31Zm-11.88,14.45a7.41,7.41,0,0,0,.32-2.92h6.31v9.72a2.62,2.62,0,0,0,3.46,2.48l1.72-.57a2.18,2.18,0,0,1,.72-.12,2.31,2.31,0,0,1,.72,4.51,2.27,2.27,0,0,1-.72.12,2.18,2.18,0,0,1-.72-.12l-1.72-.57a2.61,2.61,0,0,0-3.46,2.49v9.71H217V187.93h6.31a7.61,7.61,0,0,0,5.26,7.85,7.39,7.39,0,0,0,2.28.36A7.55,7.55,0,0,0,238.06,190.85Zm-25.35-12.32a2.64,2.64,0,0,0,3.72,0l6.31-6.31a7.66,7.66,0,0,0,3.52,2.34,7.52,7.52,0,0,0,5.77-.5,7.61,7.61,0,0,0,1.86-1.36,7.55,7.55,0,0,0-.48-11.13l6.32-6.3a2.63,2.63,0,0,0,0-3.71l-6.32-6.31a4.91,4.91,0,0,0,.48-.43,7.57,7.57,0,0,0-8.85-12,7.73,7.73,0,0,0-1.86,1.36c-.15.15-.29.31-.43.47l-6.32-6.3a2.64,2.64,0,0,0-3.72,0l-23.3,23.26a2.63,2.63,0,0,0,0,3.71Z"/>
	</g>
</svg>
