<svg xmlns="http://www.w3.org/2000/svg" viewBox="0 0 480 480">
	<!--
	<defs><style>.cls-1{fill:#fff;}.cls-2{fill:#ff50a0;}.cls-3{fill:#777;}.cls-4{fill:#ffe2ef;}</style></defs><title>thumbnail_mailmagazine</title>
	-->
	<g id="item_mailmagazine" data-name="">
		<rect class="cls-1" width="480" height="480"/>
		<path class="cls-2" d="M59.83,418.41v-36.5h4.05l13,22H77l13-22h4.2v36.5h-4v-29.8h-.1l-11.3,18.95h-3.7l-11.3-18.95h-.1v29.8Z"/>
		<path class="cls-3" d="M113.93,391.91q5.44,0,7.8,2.25c1.56,1.5,2.35,4,2.35,7.4v9.85a32.83,32.83,0,0,0,.75,7h-3.5a27.4,27.4,0,0,1-.5-4.6h-.1a9.41,9.41,0,0,1-3.9,3.75,12.11,12.11,0,0,1-5.75,1.35,8,8,0,0,1-5.75-2,7.15,7.15,0,0,1-2.15-5.48,8,8,0,0,1,3.8-6.92q3.8-2.58,10.8-2.58h2.65v-.25q0-3.8-1.43-5.27t-5.07-1.48a17.44,17.44,0,0,0-8.75,2.3l-.65-2.95A19.34,19.34,0,0,1,113.93,391.91Zm-7.15,19.35a4.52,4.52,0,0,0,1.4,3.53,5.34,5.34,0,0,0,3.75,1.27,8.54,8.54,0,0,0,8.5-8.55v-2.8h-2.65c-3.5,0-6.21.6-8.13,1.78A5.38,5.38,0,0,0,106.78,411.26Z"/>
		<path class="cls-3" d="M135.19,386.41v-5.5H139v5.5Zm0,32v-26H139v26Z"/>
		<path class="cls-3" d="M151,418.41v-37.5h3.85v37.5Z"/>
		<path class="cls-3" d="M186.82,418.41v-36.5h4.05l13,22h.1l13-22h4.2v36.5h-4v-29.8h-.1l-11.3,18.95h-3.7l-11.3-18.95h-.1v29.8Z"/>
		<path class="cls-3" d="M240.91,391.91q5.46,0,7.8,2.25t2.35,7.4v9.85a32.83,32.83,0,0,0,.75,7h-3.5a29.67,29.67,0,0,1-.5-4.6h-.1a9.41,9.41,0,0,1-3.9,3.75,12.08,12.08,0,0,1-5.75,1.35,8.05,8.05,0,0,1-5.75-2,7.18,7.18,0,0,1-2.15-5.48,8,8,0,0,1,3.8-6.92q3.81-2.58,10.8-2.58h2.65v-.25q0-3.8-1.42-5.27t-5.08-1.48a17.47,17.47,0,0,0-8.75,2.3l-.65-2.95A19.36,19.36,0,0,1,240.91,391.91Zm-7.15,19.35a4.55,4.55,0,0,0,1.4,3.53,5.38,5.38,0,0,0,3.75,1.27,8.52,8.52,0,0,0,8.5-8.55v-2.8h-2.65c-3.5,0-6.2.6-8.12,1.78A5.39,5.39,0,0,0,233.76,411.26Z"/>
		<path class="cls-3" d="M259.77,404.91q0-6.24,2.75-9.62a10.18,10.18,0,0,1,16.25,1.47h.1l.05-4.35h3.5v23.85q0,13.65-12.15,13.65a20.86,20.86,0,0,1-8.1-1.6l.85-2.95a17.88,17.88,0,0,0,7.25,1.55c2.94,0,5.09-.81,6.45-2.45s2-4.31,2-8v-3.2h-.1q-2.7,4.71-8.55,4.7a9.22,9.22,0,0,1-7.45-3.52Q259.77,410.87,259.77,404.91Zm3.6,0a11.7,11.7,0,0,0,2.08,7.33,6.59,6.59,0,0,0,5.47,2.67,7,7,0,0,0,5.65-2.6,10.69,10.69,0,0,0,2.2-7.15v-.5a10.71,10.71,0,0,0-2.2-7.12,7,7,0,0,0-5.65-2.63,6.65,6.65,0,0,0-5.55,2.58Q263.38,400.07,263.37,404.91Z"/>
		<path class="cls-3" d="M301.72,391.91q5.46,0,7.8,2.25t2.35,7.4v9.85a32.83,32.83,0,0,0,.75,7h-3.5a29.67,29.67,0,0,1-.5-4.6h-.1a9.41,9.41,0,0,1-3.9,3.75,12.08,12.08,0,0,1-5.75,1.35,8.05,8.05,0,0,1-5.75-2,7.18,7.18,0,0,1-2.15-5.48,8,8,0,0,1,3.8-6.92q3.81-2.58,10.8-2.58h2.65v-.25q0-3.8-1.42-5.27t-5.08-1.48a17.47,17.47,0,0,0-8.75,2.3l-.65-2.95A19.36,19.36,0,0,1,301.72,391.91Zm-7.15,19.35a4.55,4.55,0,0,0,1.4,3.53,5.38,5.38,0,0,0,3.75,1.27,8.52,8.52,0,0,0,8.5-8.55v-2.8h-2.65c-3.5,0-6.2.6-8.12,1.78A5.39,5.39,0,0,0,294.57,411.26Z"/>
		<path class="cls-3" d="M321.17,392.41H341v3l-15.25,19.9v.1H341v3H321.17v-3l15.25-19.9v-.1H321.17Z"/>
		<path class="cls-3" d="M350.74,386.41v-5.5h3.85v5.5Zm0,32v-26h3.85v26Z"/>
		<path class="cls-3" d="M365.58,392.41h3.5l.05,4.65h.1a11.19,11.19,0,0,1,3.82-3.77,9.69,9.69,0,0,1,5-1.38q4.4,0,6.52,2.73t2.13,8.62v15.15h-3.6V403.56q0-4.85-1.4-6.72t-4.8-1.88a6.87,6.87,0,0,0-5.3,2.88,10.1,10.1,0,0,0-2.4,6.67v13.9h-3.65Z"/>
		<path class="cls-3" d="M398.87,406.81a9.22,9.22,0,0,0,2.6,6.7A8.85,8.85,0,0,0,408,416a16.24,16.24,0,0,0,7.65-2l1,2.85a19.85,19.85,0,0,1-9,2.1,11.84,11.84,0,0,1-9.05-3.65q-3.45-3.64-3.45-9.85t3.22-9.9a11.2,11.2,0,0,1,8.78-3.6c3.6,0,6.39,1.15,8.37,3.43s3,5.56,3,9.82c0,.44,0,1-.1,1.65Zm0-2.9h16a10.14,10.14,0,0,0-2.1-6.7,7.13,7.13,0,0,0-5.65-2.35,7.63,7.63,0,0,0-5.93,2.38A10.06,10.06,0,0,0,398.87,403.91Z"/>
		<path class="cls-4" d="M280,144.08a27,27,0,0,0-18.42-8A31.94,31.94,0,0,0,240,146.29a31.9,31.9,0,0,0-21.6-10.19,27,27,0,0,0-18.46,8,25.36,25.36,0,0,0-7.88,23.16c3.24,22.58,28.61,46.22,45.77,54.82a4.89,4.89,0,0,0,4.35,0c17.15-8.6,42.52-32.24,45.71-54.82A25.32,25.32,0,0,0,280,144.08Zm43.88-28.52a103.15,103.15,0,0,0-186.63,51.92c-4.26,56.41,38.43,105.75,95.17,110a105.59,105.59,0,0,0,16.3-.07l35.06,36.79a7.52,7.52,0,0,0,8,1.88,7.52,7.52,0,0,0,4.9-6.41l4.06-51.76C346.23,224.9,356.64,161.18,323.92,115.56ZM289.41,247.64a7.42,7.42,0,0,0-3.29,5.58l-3,38.52-26-27.3a7.48,7.48,0,0,0-4.86-2.32l-1.12-.08h-.25l-.12,0c-48.27,5.95-92.41-28.24-98.41-76.22a87.19,87.19,0,0,1,57.28-93.21A89.47,89.47,0,0,1,229,88a88,88,0,0,1,65.08,17.85,87.43,87.43,0,0,1-4.71,141.79Z"/>
	</g>
</svg>