<svg xmlns="http://www.w3.org/2000/svg" viewBox="0 0 480 480">
	<!--
	<defs><style>.cls-1{fill:#fff;}.cls-2{fill:#ff50a0;}.cls-3{fill:#777;}.cls-4{fill:#ffe2ef;}</style></defs><title>thumbnail_fromizone_radio</title>
	-->
	<g id="item_fromizone_radio" data-name="">
		<rect class="cls-1" width="480" height="480"/>
		<path class="cls-2" d="M92.94,385.26H76.09v12.4H91.94v3.2H76.09v17.55h-4v-36.5H92.94Z"/>
		<path class="cls-3" d="M101.09,392.41h3.55l.1,5.55h.1q4.39-6,12.4-6v3.15a13,13,0,0,0-9,3.05,10.11,10.11,0,0,0-3.42,7.9v12.4h-3.75Z"/>
		<path class="cls-3" d="M144.31,415.26a12.68,12.68,0,0,1-17.8,0q-3.35-3.64-3.35-9.85t3.35-9.85a12.68,12.68,0,0,1,17.8,0q3.36,3.66,3.35,9.85T144.31,415.26Zm-2.67-17.57a8.36,8.36,0,0,0-12.45,0q-2.28,2.78-2.28,7.72t2.28,7.73a8.38,8.38,0,0,0,12.45,0c1.52-1.85,2.27-4.43,2.27-7.73S143.16,399.54,141.64,397.69Z"/>
		<path class="cls-3" d="M156.26,392.41h3.5l.05,4.3h.1q2.75-4.8,6.85-4.8,5,0,7,5h.1q2.64-5,7.55-5,4.05,0,6,2.38c1.26,1.58,1.9,4.12,1.9,7.62v16.5h-3.6v-15.5c0-3-.39-5.12-1.15-6.27a4.35,4.35,0,0,0-3.9-1.73,5.19,5.19,0,0,0-4.2,2.4,9.47,9.47,0,0,0-1.8,5.85v15.25H171v-15.5q0-4.5-1.18-6.25a4.38,4.38,0,0,0-3.92-1.75q-2.25,0-4.13,2.63a10.5,10.5,0,0,0-1.87,6.27v14.6h-3.65Z"/>
		<path class="cls-3" d="M199.66,418.41v-7h4.65v7Z"/>
		<path class="cls-3" d="M226.81,418.41v-36.5h4.35v36.5Z"/>
		<path class="cls-3" d="M240.87,381.91h24.35v3.35L245.57,415v.1h19.65v3.35H240.87v-3.35l19.65-29.7v-.1H240.87Z"/>
		<path class="cls-3" d="M294.05,389.81l-8.25,2.6,5.15,6.9-2.6,1.9-5-7-5,7-2.6-1.9,5.15-6.9-8.25-2.6,1-3.05,8.2,2.8-.15-8.65H285l-.1,8.65,8.2-2.8Z"/>
		<path class="cls-3" d="M331.12,413.79q-4.87,5.11-12.92,5.12t-12.95-5.12q-4.9-5.13-4.9-13.63t4.9-13.62q4.89-5.13,12.95-5.13t12.92,5.13q4.88,5.11,4.88,13.62T331.12,413.79Zm-12.92,1.77a12.81,12.81,0,0,0,10-4.17q3.78-4.17,3.78-11.23t-3.78-11.22a14.05,14.05,0,0,0-20,0q-3.78,4.17-3.77,11.22t3.77,11.23A12.88,12.88,0,0,0,318.2,415.56Z"/>
		<path class="cls-3" d="M345.15,418.41v-36.5h4.15l19,30h.1v-30h3.9v36.5h-4.1l-19-30h-.1v30Z"/>
		<path class="cls-3" d="M387.36,385.26v11.9h16.35v3.2H387.36v14.7h17.35v3.35H383.36v-36.5h21.35v3.35Z"/>
		<path class="cls-4" d="M168.8,103a21.16,21.16,0,0,1-21.08-21.19,4.22,4.22,0,1,0-8.43,0A21.16,21.16,0,0,1,118.21,103a4.24,4.24,0,0,0,0,8.47,21.15,21.15,0,0,1,21.08,21.18,4.22,4.22,0,1,0,8.43,0,21.16,21.16,0,0,1,21.08-21.18,4.24,4.24,0,0,0,0-8.47Zm-25.29,14.39a29.87,29.87,0,0,0-10.11-10.16,29.84,29.84,0,0,0,10.11-10.15,29.81,29.81,0,0,0,10.1,10.15A29.84,29.84,0,0,0,143.51,117.39ZM335.07,198a14.69,14.69,0,0,1-14.64-14.71,2.93,2.93,0,1,0-5.86,0A14.69,14.69,0,0,1,299.93,198a2.95,2.95,0,0,0,0,5.89,14.69,14.69,0,0,1,14.64,14.71,2.93,2.93,0,1,0,5.86,0,14.69,14.69,0,0,1,14.64-14.71,2.95,2.95,0,0,0,0-5.89ZM317.5,208a20.71,20.71,0,0,0-7-7.06,20.59,20.59,0,0,0,7-7,20.68,20.68,0,0,0,7,7A20.71,20.71,0,0,0,317.5,208Zm-80.78,61.62A60.73,60.73,0,0,1,186.59,243l-7.16,4.93a69.42,69.42,0,0,0,53,30.25v39.38H202v8.72h69.43v-8.72H241.06V278.17a69.34,69.34,0,0,0,53.21-30.64l-7.19-4.89A60.66,60.66,0,0,1,236.72,269.59Zm0-8.72A52.19,52.19,0,0,0,288,217.26V103.89a52,52,0,0,0-103.36,8.73v95.92A52.27,52.27,0,0,0,236.72,260.87ZM193.33,112.62a43.38,43.38,0,0,1,85.92-8.73H232.39V125.7h47.73v8.72H232.39v21.8h47.73v8.72H232.39v21.8h47.73v8.72H232.39v21.8h46.86a43.38,43.38,0,0,1-85.92-8.72Z"/>
	</g>
</svg>