<svg xmlns="http://www.w3.org/2000/svg" viewBox="0 0 480 480">
	<!--
	<defs><style>.cls-1{fill:#fff;}.cls-2{fill:#ff50a0;}.cls-3{fill:#777;}.cls-4{fill:#ffe2ef;}</style></defs><title>thumbnail_photo</title>
	-->
	<g id="item_photo" data-name="">
		<rect class="cls-1" width="480" height="480"/>
		<path class="cls-2" d="M168.3,382.4a67.07,67.07,0,0,1,10.15-.8q6.8,0,10.32,2.88c2.35,1.91,3.53,4.66,3.53,8.22q0,5.81-3.56,8.8t-10.29,3a58.78,58.78,0,0,1-6.15-.3v14.4h-4Zm4,18.5a42.17,42.17,0,0,0,5.85.4q4.95,0,7.57-2.15a7.48,7.48,0,0,0,2.62-6.15,7.31,7.31,0,0,0-2.57-6.07q-2.58-2.08-7.62-2.08a37.08,37.08,0,0,0-5.85.5Z"/>
		<path class="cls-3" d="M200.26,381.1h3.65v15.95h.1a10.08,10.08,0,0,1,8.75-4.95c2.94,0,5.11.91,6.53,2.73s2.12,4.69,2.12,8.62V418.6h-3.6V403.75c0-3.23-.46-5.47-1.4-6.72s-2.53-1.88-4.8-1.88a6.8,6.8,0,0,0-5.35,2.93,10.31,10.31,0,0,0-2.35,6.62v13.9h-3.65Z"/>
		<path class="cls-3" d="M251,415.45a12.68,12.68,0,0,1-17.8,0q-3.35-3.65-3.35-9.85t3.35-9.85a12.68,12.68,0,0,1,17.8,0q3.36,3.64,3.35,9.85T251,415.45Zm-2.67-17.57a8.36,8.36,0,0,0-12.45,0q-2.28,2.78-2.28,7.72t2.28,7.73a8.38,8.38,0,0,0,12.45,0c1.52-1.85,2.27-4.43,2.27-7.73S249.8,399.73,248.28,397.88Z"/>
		<path class="cls-3" d="M270,384.1v9.5h9.85v3H270v13.65c0,2.33.32,3.89.95,4.68s1.82,1.17,3.55,1.17a11.53,11.53,0,0,0,4.4-.85l.6,2.95a16.4,16.4,0,0,1-5.5.9q-4.25,0-6-1.82c-1.16-1.22-1.75-3.33-1.75-6.33V396.6h-5.75v-3h5.75v-9.5Z"/>
		<path class="cls-3" d="M307.73,415.45a12.68,12.68,0,0,1-17.8,0q-3.35-3.65-3.35-9.85t3.35-9.85a12.68,12.68,0,0,1,17.8,0q3.34,3.64,3.35,9.85T307.73,415.45Zm-2.68-17.57a8.36,8.36,0,0,0-12.45,0q-2.27,2.78-2.27,7.72t2.27,7.73a8.38,8.38,0,0,0,12.45,0q2.28-2.77,2.28-7.73T305.05,397.88Z"/>
		<path class="cls-4" d="M329.37,107.46V79.57H124.27V284H151.5v27.9H356.6V107.46ZM137.89,270.39V93.18H315.76V270.39ZM343,298.28H165.11V284H329.37V121.07H343ZM151.5,229.55H302.15V107.46H151.5Zm137-13.61H263l-18-20.32,14.4-11.71,29.09,29.52ZM165.11,121.07H288.53v73l-28.07-28.48L236,185.41l-34.62-39.13L165.11,172Zm0,67.63,34.18-24.24,45.55,51.48H165.11Zm75.78-33.47c3.56,0,7-3.13,6.81-6.81a6.93,6.93,0,0,0-6.81-6.8c-3.56,0-7,3.13-6.81,6.8A6.93,6.93,0,0,0,240.89,155.23Z"/>
	</g>
</svg>