<svg xmlns="http://www.w3.org/2000/svg" width="801.97" height="801.94" viewBox="0 0 801.97 801.94">
	<defs>
		<style>
			.cls-1 {
			fill: #ffe2ef;
			fill-rule: evenodd;
			}
		</style>
	</defs>
	<path id="izone_circle" class="cls-1" d="M1800.41,1587.6a7.736,7.736,0,0,0-4.22-14.74q-3.375-15.795-8.04-31.29a0.358,0.358,0,0,0,.11-0.04,4.636,4.636,0,0,0-2.87-8.77q-5.25-16.11-11.9-31.83a398.993,398.993,0,0,0-35.38-65.8,8.5,8.5,0,0,0-8.47-14.62,8.6,8.6,0,0,0-1.23.68,403.6,403.6,0,0,0-168.3-133.64,400.652,400.652,0,0,0-439.61,85.93q-13.95,13.95-26.37,29.04a5.646,5.646,0,0,0-7.72,7.31,5.5,5.5,0,0,0,.81,1.32,397.052,397.052,0,0,0-31.68,47.36,10.48,10.48,0,0,0-9.88,18.44q-5.925,11.775-11.09,23.98a396.858,396.858,0,0,0-24.13,79.03,4.815,4.815,0,0,0-3.05.29,4.858,4.858,0,0,0,1.31,9.27,406.447,406.447,0,0,0,.01,135.01,4.848,4.848,0,1,0,1.73,9.53,397.333,397.333,0,0,0,24.13,79.01q1.455,3.435,2.97,6.82a16.394,16.394,0,0,0,14.05,29.61c0.16-.07.32-0.15,0.48-0.22a397.909,397.909,0,0,0,37.07,56.01,7.013,7.013,0,1,0,8.87,10.83q3.585,4.215,7.29,8.35a4.236,4.236,0,0,0,4.93,6.63,4.573,4.573,0,0,0,.75-0.43q4.665,4.995,9.52,9.85a400.63,400.63,0,0,0,567.06,0q5.73-5.715,11.19-11.64a4.924,4.924,0,0,0,6.58-7.3,399.094,399.094,0,0,0,40.66-55.05,11.486,11.486,0,1,0,11.45-19.91q8.76-16.335,16.05-33.55A398.406,398.406,0,0,0,1805.01,1657a404.362,404.362,0,0,0-5.89-68.97A8.872,8.872,0,0,0,1800.41,1587.6Zm4.03,69.4a397.838,397.838,0,0,1-47.64,189.29,11.485,11.485,0,0,0-11.43,19.84,403.794,403.794,0,0,1-40.6,54.94,4.931,4.931,0,0,0-6.58,7.3c-73.21,79.29-177.98,129.03-294.16,129.03-115.29,0-219.35-48.98-292.48-127.22a4.237,4.237,0,0,0-4.74-6.84,4.372,4.372,0,0,0-.97.6q-3.705-4.14-7.3-8.37a7.01,7.01,0,0,0-8.11-11.02c-0.22.1-.44,0.21-0.64,0.32a400.941,400.941,0,0,1-37.08-55.92,16.389,16.389,0,0,0-14.34-29.45c-0.07.03-.15,0.07-0.22,0.1a396.723,396.723,0,0,1-27.12-85.72c0.09-.03.18-0.06,0.27-0.1a4.849,4.849,0,0,0-1.98-9.29,402.4,402.4,0,0,1-.01-134.92,4.719,4.719,0,0,0,2-.41,4.86,4.86,0,0,0-.28-9.02,397.534,397.534,0,0,1,35.24-102.85,10.478,10.478,0,0,0,9.92-18.46,401,401,0,0,1,31.57-47.11,5.646,5.646,0,1,0,7.03-8.8c73.5-89.29,184.83-146.32,309.24-146.32,132.9,0,250.88,65.08,323.76,165.04a8.5,8.5,0,0,0,8.71,14.44,10.121,10.121,0,0,0,.98-0.52,399.2,399.2,0,0,1,47.3,97.38,2.773,2.773,0,0,0-.26.1,4.64,4.64,0,0,0,3.02,8.74q4.635,15.345,8.03,31.19a7.735,7.735,0,0,0,2.94,15.18A400.675,400.675,0,0,1,1804.44,1657Z" transform="translate(-1003.06 -1256.03)">
		<animate attributeName="fill" dur="36s" repeatCount="indefinite" values="#f89cb9;#f1b9df;#8bc2e0;#ffb987;#b4a4db;#f9c2b6;#f4f1f6;#bae1ce;#fde38c;#94d4d4;#e8a9b2;#9fbbdc;#f89cb9;" />
	</path>
</svg>
