<svg xmlns="http://www.w3.org/2000/svg" width="38.38" height="38.38" viewBox="0 0 38.38 38.38"><defs><style>.cls-1{fill:#ff50a0;}</style></defs><title>icon_shine</title><g id="レイヤー_2" data-name="レイヤー 2"><g id="Layer_1" data-name="Layer 1"><path class="cls-1" d="M35.58,16.19H26.16l6.6-6.6a2.81,2.81,0,0,0-4-4l-7.1,7.1V2.81a2.52,2.52,0,1,0-5,0v9.91l-7.1-7.1a2.81,2.81,0,0,0-4.79,2,2.78,2.78,0,0,0,.82,2l6.6,6.6H2.81a3,3,0,0,0,0,6h9.41L5.62,28.8a2.8,2.8,0,0,0,0,4,2.8,2.8,0,0,0,4,0l7.1-7.1v9.92a2.52,2.52,0,1,0,5,0V25.66l7.11,7.1a2.8,2.8,0,0,0,4,0,2.8,2.8,0,0,0,0-4l-6.6-6.6h9.42a3,3,0,0,0,0-6Z"/></g></g></svg>