<svg xmlns="http://www.w3.org/2000/svg" viewBox="0 0 612.18 320.74"><defs><style>.cls-1{fill:#ff50a0;}.cls-2{opacity:0.2;}.cls-3{opacity:0.5;}.cls-4{opacity:0.3;}</style></defs><title>sitelogo</title><g id="レイヤー_2" data-name="レイヤー 2"><g id="Layer_1" data-name="Layer 1"><path class="cls-1" d="M505.48,237.4a5.2,5.2,0,0,1-5.45-5V51.83c0-15.71-14.34-28.5-31.83-28.5s-31.83,12.79-31.83,28.5V232.4a5.47,5.47,0,0,1-10.9,0V51.83c0-21.23,19.1-38.5,42.73-38.5s42.73,17.27,42.73,38.5V232.4A5.2,5.2,0,0,1,505.48,237.4Z"/><path class="cls-1" d="M6.2,238.29A5.14,5.14,0,0,1,1,233.35v-216A5.14,5.14,0,0,1,6.2,12.44a5.14,5.14,0,0,1,5.16,4.93v216A5.14,5.14,0,0,1,6.2,238.29Z"/><path class="cls-1" d="M606.64,193.33c-3.06,0-5.55,2.22-5.55,4.95,0,15.59-14.17,28.27-31.6,28.27s-31.6-12.68-31.6-28.27V130.93h48.92c3.06,0,5.54-1.85,5.54-4.59s-2.48-4.59-5.54-4.59H537.89V52.45c0-15.59,14.18-28.27,31.6-28.27s31.6,12.68,31.6,28.27c0,2.73,2.48,4.95,5.54,4.95s5.55-2.22,5.55-4.95c0-21.06-19.35-38.18-42.88-38.18s-42.88,17.12-42.88,38.18V198.28c0,21.06,19.34,38.18,42.88,38.18s42.78-17.12,42.78-38.18A5.18,5.18,0,0,0,606.64,193.33Z"/><path class="cls-1" d="M115.05,237H39.86a5.67,5.67,0,0,1-4.28-2.62,4.83,4.83,0,0,1-.65-4.57L107.66,25.39H39.84a5.16,5.16,0,1,1,0-10.32h75.23c1.71,0,3.3.34,4.28,1.73a5.74,5.74,0,0,1,.66,5L47.28,226.71h67.77a5.17,5.17,0,1,1,0,10.33Z"/><g class="cls-2"><rect class="cls-1" x="272.28" y="110.21" width="30.3" height="30.3" transform="translate(172.83 -166.53) rotate(45)"/></g><path class="cls-1" d="M287.44,149.73l-24.37-24.37L287.44,101l24.37,24.36ZM269,125.36l18.49,18.49,18.48-18.49-18.48-18.48Z"/><g class="cls-3"><polygon class="cls-1" points="287.44 104.73 290.1 125.28 308.87 124.89 287.44 104.73"/></g><rect class="cls-1" x="267.17" y="124.05" width="41.87" height="4.01"/><g class="cls-4"><polygon class="cls-1" points="266.01 125.34 287.44 146.77 290.55 126.57 266.01 125.34"/></g><path class="cls-1" d="M402.05,75.74A124.12,124.12,0,0,0,233.71,12.38a5,5,0,1,0,4.37,9A112.91,112.91,0,0,1,287.78,10a114.24,114.24,0,1,1-96.9,54.31V88.09a4,4,0,1,0,8,0V60.53L218.47,80a4.19,4.19,0,0,0,5.93,0,3.89,3.89,0,0,0,0-5.66L205,55.22h27.45a4,4,0,1,0,0-8H204.31A113.48,113.48,0,0,1,223.84,30a5.26,5.26,0,0,0,1.33-7.17,5.1,5.1,0,0,0-7-1.43,122.08,122.08,0,0,0-19.25,16V12.91a4,4,0,1,0-8,0V40.36L171.38,21a4.24,4.24,0,0,0-6,0,4.67,4.67,0,0,0,0,6.31l19.47,19.91H157.3a4,4,0,1,0,0,8h27.62A123.84,123.84,0,1,0,402.05,75.74Z"/><path class="cls-1" d="M2.11,320.15a2.62,2.62,0,0,1-1.52-1A3,3,0,0,1,0,317.3v-.43a1.39,1.39,0,0,1,.65-1.22A1.53,1.53,0,0,1,2,315.46a16.09,16.09,0,0,0,5.09.86,4.35,4.35,0,0,0,3.73-1.59c.8-1.05,1.2-2.84,1.2-5.34V294a2.27,2.27,0,0,1,2.23-2.23h1.25a2.07,2.07,0,0,1,1.55.67,2.16,2.16,0,0,1,.65,1.56v16.44q0,5.49-2.43,7.89t-7.75,2.41A23.41,23.41,0,0,1,2.11,320.15Z"/><path class="cls-1" d="M23,320.35a1.48,1.48,0,0,1-1.29-.67,1.51,1.51,0,0,1-.2-1.44l8.11-24.36a3.27,3.27,0,0,1,1.15-1.52,3,3,0,0,1,1.78-.59h1.41a3.1,3.1,0,0,1,2.94,2.11L45,318.24a1.57,1.57,0,0,1-1.48,2.11H42.09a2.82,2.82,0,0,1-1.75-.61,2.92,2.92,0,0,1-1.07-1.54L38,313.77c0-.21-.17-.31-.44-.31H28.74a.39.39,0,0,0-.43.31l-1.26,4.43a2.69,2.69,0,0,1-1,1.54,2.87,2.87,0,0,1-1.79.61Zm10.14-23.73-3.44,12.3a.22.22,0,0,0,0,.23.22.22,0,0,0,.19.12h6.5a.24.24,0,0,0,.2-.12.28.28,0,0,0,0-.23l-3.45-12.3s0,0,0,0S33.12,296.6,33.12,296.62Z"/><path class="cls-1" d="M51.25,320.35a2.07,2.07,0,0,1-1.55-.67,2.15,2.15,0,0,1-.64-1.56V294.2a2.54,2.54,0,0,1,.62-1.69,2.24,2.24,0,0,1,1.57-.82q3.33-.31,6.42-.31,5.86,0,8.81,2.33a8.09,8.09,0,0,1,2.93,6.75q0,4.89-2.83,7.4t-8.4,2.51c-.86,0-2-.06-3.41-.16a.27.27,0,0,0-.31.31v7.6a2.29,2.29,0,0,1-2.23,2.23Zm3.21-24.12v9.44a.34.34,0,0,0,.31.35,22.33,22.33,0,0,0,2.9.2,7.4,7.4,0,0,0,4.83-1.39,4.9,4.9,0,0,0,1.67-4q0-5.21-6.5-5.2a22.28,22.28,0,0,0-2.9.19A.36.36,0,0,0,54.46,296.23Z"/><path class="cls-1" d="M71.57,320.35a1.58,1.58,0,0,1-1.49-2.11l8.1-24.36a3.29,3.29,0,0,1,1.16-1.52,3,3,0,0,1,1.78-.59h1.41a3,3,0,0,1,1.82.59,3.09,3.09,0,0,1,1.12,1.52l8.1,24.36a1.58,1.58,0,0,1-1.49,2.11H90.67a2.82,2.82,0,0,1-1.74-.61,3,3,0,0,1-1.08-1.54l-1.25-4.43c0-.21-.17-.31-.43-.31H77.32a.39.39,0,0,0-.43.31l-1.25,4.43a2.71,2.71,0,0,1-1,1.54,2.85,2.85,0,0,1-1.78.61Zm10.14-23.73-3.45,12.3a.28.28,0,0,0,0,.23.23.23,0,0,0,.2.12H85a.23.23,0,0,0,.19-.12.24.24,0,0,0,0-.23l-3.44-12.3s0,0,0,0S81.71,296.6,81.71,296.62Z"/><path class="cls-1" d="M100.62,320.35a2.07,2.07,0,0,1-1.55-.67,2.16,2.16,0,0,1-.65-1.56V294a2.16,2.16,0,0,1,.65-1.56,2.07,2.07,0,0,1,1.55-.67h.86a3.49,3.49,0,0,1,3.29,2l9.67,17.46s0,0,0,0a0,0,0,0,0,0,0V294a2.27,2.27,0,0,1,2.23-2.23h.86a2,2,0,0,1,1.54.67,2.12,2.12,0,0,1,.65,1.56v24.12a2.12,2.12,0,0,1-.65,1.56,2,2,0,0,1-1.54.67h-.86a3.48,3.48,0,0,1-3.29-2l-9.67-17.46a0,0,0,0,0,0,0,0,0,0,0,0,0,0v17.19a2.29,2.29,0,0,1-2.23,2.23Z"/><path class="cls-1" d="M163.79,316.87a13.68,13.68,0,0,1-19.07,0q-3.51-3.89-3.5-10.81t3.5-10.81a13.68,13.68,0,0,1,19.07,0q3.5,3.88,3.5,10.81T163.79,316.87Zm-2.1-10.81q0-10.19-7.44-10.18t-7.44,10.18q0,10.19,7.44,10.18T161.69,306.06Z"/><path class="cls-1" d="M173.12,320.35a2,2,0,0,1-1.54-.67,2.16,2.16,0,0,1-.65-1.56V294a2.16,2.16,0,0,1,.65-1.56,2,2,0,0,1,1.54-.67H186a2.27,2.27,0,0,1,2.23,2.23,2.1,2.1,0,0,1-.66,1.55,2.19,2.19,0,0,1-1.57.64h-9.31c-.21,0-.32.12-.32.36v6.85a.28.28,0,0,0,.32.31h8.65a2,2,0,0,1,1.48.61,2.11,2.11,0,0,1,0,3,2,2,0,0,1-1.48.61h-8.65a.28.28,0,0,0-.32.31v9.87a2.27,2.27,0,0,1-2.23,2.23Z"/><path class="cls-1" d="M194.81,320.35a2,2,0,0,1-1.54-.67,2.16,2.16,0,0,1-.65-1.56V294a2.16,2.16,0,0,1,.65-1.56,2,2,0,0,1,1.54-.67h12.92A2.27,2.27,0,0,1,210,294a2.1,2.1,0,0,1-.66,1.55,2.19,2.19,0,0,1-1.57.64h-9.32c-.2,0-.31.12-.31.36v6.85a.28.28,0,0,0,.31.31h8.66a2,2,0,0,1,1.48.61,2.11,2.11,0,0,1,0,3,2,2,0,0,1-1.48.61h-8.66a.28.28,0,0,0-.31.31v9.87a2.27,2.27,0,0,1-2.23,2.23Z"/><path class="cls-1" d="M217.6,320.35a2.27,2.27,0,0,1-2.23-2.23V294a2.27,2.27,0,0,1,2.23-2.23h1.56A2.29,2.29,0,0,1,221.4,294v24.12a2.29,2.29,0,0,1-2.24,2.23Z"/><path class="cls-1" d="M240.23,320.74q-6.19,0-9.81-3.82t-3.62-10.86c0-4.65,1.17-8.25,3.5-10.83s5.61-3.85,9.81-3.85a28.48,28.48,0,0,1,4.85.35,2.51,2.51,0,0,1,1.57.94,2.73,2.73,0,0,1,.63,1.76v.32a1.5,1.5,0,0,1-.69,1.29,1.76,1.76,0,0,1-1.47.27,16.74,16.74,0,0,0-4.3-.51,7.47,7.47,0,0,0-6.09,2.67c-1.48,1.77-2.21,4.3-2.21,7.59s.76,5.79,2.29,7.58a7.66,7.66,0,0,0,6.12,2.68,18.28,18.28,0,0,0,4.43-.47,1.76,1.76,0,0,1,1.47.27,1.5,1.5,0,0,1,.68,1.29v.28a2.7,2.7,0,0,1-.61,1.74,2.41,2.41,0,0,1-1.58.92A29.06,29.06,0,0,1,240.23,320.74Z"/><path class="cls-1" d="M255,320.35a2.11,2.11,0,0,1-1.57-.67,2.14,2.14,0,0,1-.67-1.56V294a2.14,2.14,0,0,1,.67-1.56,2.11,2.11,0,0,1,1.57-.67h1.56a2.27,2.27,0,0,1,2.23,2.23v24.12a2.27,2.27,0,0,1-2.23,2.23Z"/><path class="cls-1" d="M264.07,320.35a1.58,1.58,0,0,1-1.49-2.11l8.11-24.36a3.21,3.21,0,0,1,1.15-1.52,3,3,0,0,1,1.78-.59H275a3.1,3.1,0,0,1,2.94,2.11l8.1,24.36a1.57,1.57,0,0,1-1.49,2.11h-1.41a2.82,2.82,0,0,1-1.74-.61,2.92,2.92,0,0,1-1.07-1.54l-1.26-4.43c0-.21-.17-.31-.43-.31h-8.85a.4.4,0,0,0-.43.31l-1.25,4.43a2.71,2.71,0,0,1-1,1.54,2.85,2.85,0,0,1-1.78.61Zm10.14-23.73-3.45,12.3a.28.28,0,0,0,0,.23.23.23,0,0,0,.2.12h6.5a.22.22,0,0,0,.19-.12.22.22,0,0,0,0-.23l-3.44-12.3s0,0,0,0S274.21,296.6,274.21,296.62Z"/><path class="cls-1" d="M292.73,320.35a2.07,2.07,0,0,1-1.55-.67,2.16,2.16,0,0,1-.65-1.56V294a2.16,2.16,0,0,1,.65-1.56,2.07,2.07,0,0,1,1.55-.67H294a2.27,2.27,0,0,1,2.23,2.23v21.46c0,.23.11.35.31.35h10.07a2.09,2.09,0,0,1,1.54.64,2.14,2.14,0,0,1,.65,1.55v.12a2.16,2.16,0,0,1-.65,1.56,2,2,0,0,1-1.54.67Z"/><path class="cls-1" d="M333.17,320.35a2.07,2.07,0,0,1-1.55-.67,2.15,2.15,0,0,1-.64-1.56V294a2.15,2.15,0,0,1,.64-1.56,2.07,2.07,0,0,1,1.55-.67h12.92a2.27,2.27,0,0,1,2.23,2.23,2.1,2.1,0,0,1-.66,1.55,2.19,2.19,0,0,1-1.57.64h-9.32c-.21,0-.31.12-.31.36v6.85a.27.27,0,0,0,.31.31h8.65a2,2,0,0,1,1.49.61,2.11,2.11,0,0,1,0,3,2,2,0,0,1-1.49.61h-8.65a.27.27,0,0,0-.31.31v9.87a2.29,2.29,0,0,1-2.23,2.23Z"/><path class="cls-1" d="M350.43,320.35a1.5,1.5,0,0,1-1.29-.67,1.48,1.48,0,0,1-.19-1.44l8.1-24.36a3.29,3.29,0,0,1,1.16-1.52,2.93,2.93,0,0,1,1.78-.59h1.41a3,3,0,0,1,1.82.59,3.07,3.07,0,0,1,1.11,1.52l8.11,24.36a1.51,1.51,0,0,1-.2,1.44,1.48,1.48,0,0,1-1.29.67h-1.41a2.78,2.78,0,0,1-1.74-.61,2.88,2.88,0,0,1-1.08-1.54l-1.25-4.43c0-.21-.17-.31-.43-.31h-8.85a.39.39,0,0,0-.43.31l-1.25,4.43a2.76,2.76,0,0,1-1,1.54,2.87,2.87,0,0,1-1.78.61Zm10.14-23.73-3.44,12.3a.24.24,0,0,0,0,.23.23.23,0,0,0,.19.12h6.5a.23.23,0,0,0,.2-.12.28.28,0,0,0,0-.23l-3.45-12.3s0,0,0,0S360.57,296.6,360.57,296.62Z"/><path class="cls-1" d="M379.48,320.35a2,2,0,0,1-1.54-.67,2.16,2.16,0,0,1-.65-1.56V294a2.16,2.16,0,0,1,.65-1.56,2,2,0,0,1,1.54-.67h.87a3.48,3.48,0,0,1,3.28,2l9.67,17.46a0,0,0,0,0,0,0s0,0,0,0V294a2.29,2.29,0,0,1,2.23-2.23h.87a2,2,0,0,1,1.54.67,2.16,2.16,0,0,1,.65,1.56v24.12a2.16,2.16,0,0,1-.65,1.56,2,2,0,0,1-1.54.67h-.87a3.48,3.48,0,0,1-3.28-2l-9.67-17.46a0,0,0,0,0,0,0,0,0,0,0,0,0,0v17.19a2.29,2.29,0,0,1-2.23,2.23Z"/><path class="cls-1" d="M432.34,320.74q-6.19,0-9.81-3.82t-3.62-10.86c0-4.65,1.17-8.25,3.5-10.83s5.61-3.85,9.81-3.85a28.48,28.48,0,0,1,4.85.35,2.51,2.51,0,0,1,1.57.94,2.73,2.73,0,0,1,.63,1.76v.32a1.5,1.5,0,0,1-.69,1.29,1.75,1.75,0,0,1-1.47.27,16.74,16.74,0,0,0-4.3-.51,7.47,7.47,0,0,0-6.09,2.67c-1.48,1.77-2.21,4.3-2.21,7.59s.76,5.79,2.29,7.58a7.67,7.67,0,0,0,6.13,2.68,18.25,18.25,0,0,0,4.42-.47,1.76,1.76,0,0,1,1.47.27,1.5,1.5,0,0,1,.68,1.29v.28a2.74,2.74,0,0,1-.6,1.74,2.46,2.46,0,0,1-1.59.92A29.06,29.06,0,0,1,432.34,320.74Z"/><path class="cls-1" d="M447,320.35a2.07,2.07,0,0,1-1.55-.67,2.15,2.15,0,0,1-.64-1.56V294a2.15,2.15,0,0,1,.64-1.56,2.07,2.07,0,0,1,1.55-.67h1.25a2.27,2.27,0,0,1,2.23,2.23v21.46c0,.23.11.35.32.35h10.06A2.19,2.19,0,0,1,463,318v.12a2.15,2.15,0,0,1-.64,1.56,2.08,2.08,0,0,1-1.55.67Z"/><path class="cls-1" d="M477.16,320.74q-10.56,0-10.57-10.57V294a2.14,2.14,0,0,1,.67-1.56,2.11,2.11,0,0,1,1.57-.67h1.09a2.27,2.27,0,0,1,2.23,2.23v16.48c0,2,.41,3.51,1.24,4.41a6.18,6.18,0,0,0,7.71,0,6.46,6.46,0,0,0,1.23-4.41V294a2.29,2.29,0,0,1,2.23-2.23h.94a2.29,2.29,0,0,1,2.24,2.23v16.17Q487.74,320.75,477.16,320.74Z"/><path class="cls-1" d="M495.49,320.43a2.25,2.25,0,0,1-1.57-.8,2.53,2.53,0,0,1-.63-1.71V294.2a2.55,2.55,0,0,1,.63-1.71,2.28,2.28,0,0,1,1.61-.8,51.62,51.62,0,0,1,5.59-.31q11,0,11,7.16a5.94,5.94,0,0,1-1.61,4.15,7.43,7.43,0,0,1-4.23,2.27,0,0,0,0,0,0,0c0,.06,0,.08,0,.08a8.36,8.36,0,0,1,5,2.37,6.49,6.49,0,0,1,1.82,4.68c0,2.87-.93,5-2.81,6.46s-4.81,2.15-8.77,2.15A58.55,58.55,0,0,1,495.49,320.43Zm3.21-24.2v6.7c0,.23.1.35.31.35h1.14a10.41,10.41,0,0,0,5.26-1,3.25,3.25,0,0,0,1.63-2.95,3.13,3.13,0,0,0-1.33-2.78,8,8,0,0,0-4.35-.9,15.8,15.8,0,0,0-2.35.15A.39.39,0,0,0,498.7,296.23Zm0,11.44v8.22a.37.37,0,0,0,.35.39,18.24,18.24,0,0,0,2.58.19,7.62,7.62,0,0,0,4.76-1.19,4.41,4.41,0,0,0,1.51-3.66,3.49,3.49,0,0,0-1.74-3.23c-1.17-.69-3.09-1-5.78-1H499A.28.28,0,0,0,498.7,307.67Z"/><path class="cls-1" d="M541.21,308.29a16.29,16.29,0,0,1-6.79-3.8,7.56,7.56,0,0,1-2.09-5.4,7.08,7.08,0,0,1,2.39-5.64,9.88,9.88,0,0,1,6.69-2.07,21.78,21.78,0,0,1,6.34.82,2.68,2.68,0,0,1,1.51,1.12,3.24,3.24,0,0,1,.57,1.86v.35a1.29,1.29,0,0,1-.67,1.15,1.46,1.46,0,0,1-1.37.14,16.42,16.42,0,0,0-6-1.14,4.34,4.34,0,0,0-3,.91,3.16,3.16,0,0,0-1,2.5c0,1.88,1.22,3.22,3.68,4q5.28,1.69,7.34,3.84a7.73,7.73,0,0,1,2,5.56q0,8.22-10.14,8.22a16.17,16.17,0,0,1-5.75-1,2.83,2.83,0,0,1-1.47-1.21,3.62,3.62,0,0,1-.53-1.92v-.47a1.15,1.15,0,0,1,.63-1.08,1.4,1.4,0,0,1,1.29,0,11.91,11.91,0,0,0,5.44,1.3c3.32,0,5-1.26,5-3.76a3.58,3.58,0,0,0-.93-2.53A8.11,8.11,0,0,0,541.21,308.29Z"/><path class="cls-1" d="M557.73,320.35a2.29,2.29,0,0,1-2.23-2.23V294a2.29,2.29,0,0,1,2.23-2.23h1.57a2.27,2.27,0,0,1,2.23,2.23v24.12a2.27,2.27,0,0,1-2.23,2.23Z"/><path class="cls-1" d="M568.78,296.31a2.16,2.16,0,0,1-1.57-.64,2.12,2.12,0,0,1-.67-1.55V294a2.14,2.14,0,0,1,.67-1.56,2.11,2.11,0,0,1,1.57-.67h16.67a2.27,2.27,0,0,1,2.23,2.23v.12a2.11,2.11,0,0,1-.66,1.55,2.18,2.18,0,0,1-1.57.64h-5.24c-.21,0-.32.12-.32.35v21.46a2.27,2.27,0,0,1-2.23,2.23h-1.09a2.29,2.29,0,0,1-2.24-2.23V296.66c0-.23-.1-.35-.31-.35Z"/><path class="cls-1" d="M593.36,320.35a2.29,2.29,0,0,1-2.23-2.23V294a2.29,2.29,0,0,1,2.23-2.23h13.31A2.27,2.27,0,0,1,608.9,294a2.1,2.1,0,0,1-.66,1.55,2.19,2.19,0,0,1-1.57.64H597a.32.32,0,0,0-.35.36v6.3a.31.31,0,0,0,.35.35h9a2,2,0,0,1,1.5.63,2,2,0,0,1,.61,1.49,2,2,0,0,1-.61,1.46,2,2,0,0,1-1.5.61h-9a.31.31,0,0,0-.35.35v7.83a.32.32,0,0,0,.35.36h9.71a2.19,2.19,0,0,1,1.57.64,2.1,2.1,0,0,1,.66,1.55,2.27,2.27,0,0,1-2.23,2.23Z"/></g></g></svg>