<?xml version="1.0" encoding="utf-8"?>
<!-- Generator: Adobe Illustrator 23.0.1, SVG Export Plug-In . SVG Version: 6.00 Build 0)  -->
<svg version="1.1" id="Layer_1" xmlns="http://www.w3.org/2000/svg" xmlns:xlink="http://www.w3.org/1999/xlink" x="0px" y="0px"
	 width="100px" height="40px" viewBox="0 0 100 40" style="enable-background:new 0 0 100 40;" xml:space="preserve">
<style type="text/css">
	.st0{fill:#FF50A0;}
	.st1{opacity:0.2;}
	.st2{opacity:0.5;}
	.st3{opacity:0.3;}
</style>
<g>
	<g>
		<g>
			<path class="st0" d="M81,37.7c-0.5,0-0.8-0.3-0.8-0.8V8.7c0-2.5-2.2-4.4-5-4.4c-2.7,0-5,2-5,4.4v28.2c0,0.4-0.4,0.8-0.8,0.8
				s-0.8-0.3-0.8-0.8V8.7c0-3.3,3-6,6.7-6c3.7,0,6.7,2.7,6.7,6v28.2C81.9,37.3,81.5,37.7,81,37.7z"/>
		</g>
	</g>
	<g>
		<g>
			<g>
				<path class="st0" d="M3.1,37.8c-0.4,0-0.8-0.3-0.8-0.8V3.4c0-0.4,0.4-0.8,0.8-0.8s0.8,0.3,0.8,0.8v33.7
					C3.9,37.5,3.6,37.8,3.1,37.8z"/>
			</g>
		</g>
	</g>
	<g>
		<path class="st0" d="M96.8,30.8c-0.5,0-0.9,0.3-0.9,0.8c0,2.4-2.2,4.4-4.9,4.4s-4.9-2-4.9-4.4V21.1h7.6c0.5,0,0.9-0.3,0.9-0.7
			c0-0.4-0.4-0.7-0.9-0.7h-7.6V8.8c0-2.4,2.2-4.4,4.9-4.4s4.9,2,4.9,4.4c0,0.4,0.4,0.8,0.9,0.8s0.9-0.3,0.9-0.8c0-3.3-3-6-6.7-6
			c-3.7,0-6.7,2.7-6.7,6v22.7c0,3.3,3,6,6.7,6c3.7,0,6.7-2.7,6.7-6C97.7,31.2,97.3,30.8,96.8,30.8z"/>
	</g>
	<g>
		<g>
			<g>
				<path class="st0" d="M20.1,37.6H8.4c-0.3,0-0.5-0.2-0.7-0.4c-0.2-0.2-0.2-0.5-0.1-0.7L19,4.6H8.4c-0.5,0-0.8-0.4-0.8-0.8
					S7.9,3,8.4,3h11.7c0.3,0,0.5,0.1,0.7,0.3c0.2,0.2,0.2,0.5,0.1,0.8L9.5,36h10.6c0.5,0,0.8,0.4,0.8,0.8S20.6,37.6,20.1,37.6z"/>
			</g>
		</g>
	</g>
	<g>
		<g>
			<g class="st1">
				<g>
					
						<rect x="44.6" y="17.8" transform="matrix(0.7071 0.7071 -0.7071 0.7071 28.0587 -27.322)" class="st0" width="4.7" height="4.7"/>
				</g>
			</g>
			<g>
				<g>
					<path class="st0" d="M47,24l-3.8-3.8l3.8-3.8l3.8,3.8L47,24z M44.1,20.2l2.9,2.9l2.9-2.9L47,17.3L44.1,20.2z"/>
				</g>
			</g>
		</g>
		<g>
			<g class="st2">
				<polygon class="st0" points="47,17 47.4,20.2 50.4,20.1 				"/>
			</g>
			<g>
				<g>
					<rect x="43.8" y="20" class="st0" width="6.5" height="0.6"/>
				</g>
			</g>
			<g class="st3">
				<polygon class="st0" points="43.7,20.2 47,23.5 47.5,20.4 				"/>
			</g>
		</g>
	</g>
	<path class="st0" d="M64.9,12.5c-1-2.3-2.4-4.4-4.1-6.1c-1.8-1.8-3.8-3.2-6.1-4.1c-2.4-1-4.9-1.5-7.5-1.5c-3,0-5.8,0.6-8.4,1.9
		c-0.4,0.2-0.6,0.7-0.4,1c0.2,0.4,0.7,0.6,1,0.4c2.4-1.2,5-1.8,7.8-1.8c9.8,0,17.8,8,17.8,17.8s-8,17.8-17.8,17.8s-17.8-8-17.8-17.8
		c0-3.3,0.9-6.6,2.6-9.3v3.7c0,0.4,0.3,0.7,0.6,0.7s0.6-0.3,0.6-0.7v-4.3l3.1,3c0.3,0.3,0.7,0.3,0.9,0c0.3-0.3,0.3-0.6,0-0.9l-3-3
		h4.3c0.4,0,0.7-0.3,0.7-0.6S38.8,8,38.4,8H34c0.9-1,1.9-1.9,3-2.7c0.4-0.2,0.5-0.8,0.2-1.1c-0.2-0.4-0.7-0.5-1.1-0.2
		c-1.1,0.7-2.1,1.6-3,2.5V2.7c0-0.4-0.3-0.7-0.6-0.7s-0.6,0.3-0.6,0.7v4.3l-3-3c-0.3-0.3-0.7-0.3-0.9,0c-0.3,0.3-0.3,0.7,0,1L31,8
		h-4.3c-0.4,0-0.7,0.3-0.7,0.6s0.3,0.6,0.7,0.6H31c-2.1,3.1-3.3,6.9-3.3,10.8c0,2.6,0.5,5.1,1.5,7.5c1,2.3,2.4,4.4,4.1,6.1
		c1.8,1.8,3.8,3.2,6.1,4.1c2.4,1,4.9,1.5,7.5,1.5s5.1-0.5,7.5-1.5c2.3-1,4.4-2.4,6.1-4.1c1.8-1.8,3.2-3.8,4.1-6.1
		c1-2.4,1.5-4.9,1.5-7.5S65.9,14.9,64.9,12.5z"/>
</g>
</svg>
