<?xml version="1.0" encoding="utf-8"?>
<!-- Generator: Adobe Illustrator 23.0.1, SVG Export Plug-In . SVG Version: 6.00 Build 0)  -->
<svg version="1.1" id="レイヤー_1" xmlns="http://www.w3.org/2000/svg" xmlns:xlink="http://www.w3.org/1999/xlink" x="0px"
	 y="0px" width="60px" height="60px" viewBox="0 0 60 60" style="enable-background:new 0 0 60 60;" xml:space="preserve">
<style type="text/css">
	.st0{fill:#FF50A0;}
	.st1{opacity:0.2;}
	.st2{opacity:0.5;}
	.st3{opacity:0.3;}
</style>
<g>
	<g>
		<path id="u_7_" class="st0" d="M44.4,22.4h-2.9v-1.7c-1.1,1.3-2,1.9-3.1,1.9c-0.9,0-1.5-0.4-1.8-1.2c-0.2-0.5-0.3-1.2-0.3-2.3V6.9
			h2.9v11.5c0,0.7,0,0.9,0,1.1c0.1,0.4,0.3,0.6,0.6,0.6c0.6,0,1.1-0.5,1.7-1.4V6.9h2.9V22.4z"/>
		<path id="o_4_" class="st0" d="M34.1,11.9c0-1.7-0.3-2.9-0.9-3.7c-0.8-1.1-2-1.5-3.2-1.5c-1.4,0-2.5,0.4-3.2,1.5
			c-0.6,0.8-0.9,2-0.9,3.7l0,5.5c0,1.7,0.3,2.8,0.9,3.6c0.8,1.1,2,1.6,3.3,1.6s2.5-0.6,3.3-1.6c0.6-0.8,0.9-1.9,0.9-3.6V11.9z
			 M31.2,17.8c0.2,1.5-0.3,2.3-1.2,2.3s-1.4-0.8-1.2-2.3v-6.2c-0.2-1.5,0.3-2.3,1.2-2.3s1.4,0.7,1.2,2.3L31.2,17.8z"/>
		<path id="y_4_" class="st0" d="M22.5,13.9v8.5h-3.1v-8.5c0,0-3.2-10.4-3.8-12.3h3.2L21,9.7l2.2-8.1h3.2L22.5,13.9z"/>
	</g>
	<g>
		<path class="st0" d="M46.2,41c0-1.4-0.4-1.9-1.3-1.9c-0.9,0-1.3,0.4-1.3,1.8v1.7l2.6,0V41z"/>
		<path class="st0" d="M34.7,39.2c-0.5,0-1,0.2-1.5,0.7l0,9.3c0.5,0.5,1,0.7,1.5,0.7c0.8,0,1.2-0.6,1.2-2.1v-6.6
			C35.9,39.6,35.5,39.2,34.7,39.2z"/>
		<path class="st0" d="M52.5,33.1c0,0-0.4-3.2-1.8-4.5c-1.7-1.8-3.7-1.8-4.6-1.9C39.7,26.2,30,26.2,30,26.2h0c0,0-9.6,0-16.1,0.5
			c-0.9,0.1-2.9,0.1-4.6,1.9c-1.4,1.4-1.8,4.5-1.8,4.5S7,36.8,7,40.5V44c0,3.7,0.5,7.4,0.5,7.4s0.4,3.2,1.8,4.5c1.7,1.8,4,1.8,5.1,2
			C18,58.3,30,58.4,30,58.4s9.7,0,16.1-0.5c0.9-0.1,2.9-0.1,4.6-1.9c1.4-1.4,1.8-4.5,1.8-4.5S53,47.7,53,44v-3.5
			C53,36.8,52.5,33.1,52.5,33.1z M17.1,52.2H14V34.5h-3.2v-2.9l9.7,0v2.9h-3.4V52.2z M28.2,52.2h-2.9v-1.7c-1.1,1.3-2,1.9-3.1,1.9
			c-0.9,0-1.5-0.4-1.8-1.2C20.2,50.8,20,50.1,20,49V36.8H23v11.4c0,0.7,0,0.9,0,1.1c0.1,0.4,0.3,0.6,0.6,0.6c0.6,0,1.1-0.5,1.7-1.4
			V36.8h2.9V52.2z M38.8,47.6c0,1.4-0.1,2.4-0.3,3.1c-0.4,1.1-1.2,1.7-2.3,1.7c-1,0-2-0.6-2.9-1.7l0,1.6h-2.8V31.6h2.8l0,6.7
			c0.9-1.1,1.9-1.7,2.9-1.7c1.1,0,1.9,0.6,2.2,1.8c0.2,0.6,0.4,1.6,0.4,3.1V47.6z M44.9,49.9c0.7,0,1.1-0.4,1.2-1.1
			c0-0.2,0-0.8,0-1.9h2.9v0.4c0,0.9-0.1,1.5-0.1,1.8c-0.1,0.6-0.3,1.2-0.7,1.7c-0.8,1.1-1.9,1.7-3.4,1.7c-1.5,0-2.6-0.5-3.4-1.6
			c-0.6-0.8-1-1.9-1-3.5v-5.4c0-1.6,0.3-2.9,0.9-3.7c0.8-1.1,1.9-1.6,3.3-1.6c1.4,0,2.5,0.6,3.3,1.6c0.6,0.8,0.9,2,0.9,3.6l0,3.1
			h-5.5v2.8C43.6,49.2,44,49.9,44.9,49.9z"/>
	</g>
</g>
</svg>
