<?xml version="1.0" encoding="utf-8"?>
<!-- Generator: Adobe Illustrator 23.0.1, SVG Export Plug-In . SVG Version: 6.00 Build 0)  -->
<svg version="1.1" id="レイヤー_1" xmlns="http://www.w3.org/2000/svg" xmlns:xlink="http://www.w3.org/1999/xlink" x="0px"
	 y="0px" width="60px" height="60px" viewBox="0 0 60 60" style="enable-background:new 0 0 60 60;" xml:space="preserve">
<style type="text/css">
	.st0{fill:#FF50A0;}
	.st1{opacity:0.2;}
	.st2{opacity:0.5;}
	.st3{opacity:0.3;}
</style>
<g>
	<path class="st0" d="M35.1,3.6c0.5,0,0.9,0,1.4,0.2c1.7,0.6,2.7,2.6,2.1,4.4l-3.4,12l-1.6,5.6c-0.7-0.3-1.5-0.4-2.3-0.4H15.2
		L10.4,8.2c-0.5-1.8,0.4-3.9,2.1-4.4c1.9-0.6,3.9,0.4,4.4,2.3c0,0,0,0,0,0l4,14.3c0.5,1.7,2.1,2.7,3.6,2.7c1.5,0,3.1-1,3.6-2.7
		l4-14.3c0,0,0,0,0,0C32.5,4.6,33.8,3.7,35.1,3.6L35.1,3.6z"/>
	<path class="st0" d="M40.6,22c0.3,0,0.5,0.1,0.8,0.1c2.2,0.6,3.4,2.8,2.8,5l-0.5,1.7c0,0,0,0,0,0.1l-1.6,5.7c0,0,0,0.1,0,0.1
		l-1.1,3.9c-0.5,1.8-2.1,2.9-3.9,2.9c-0.4,0-0.7,0-1.1-0.2c-1.7-0.5-2.8-1.9-2.9-3.5c2.7-0.7,4.7-3.2,4.7-6.1c0-1.8-0.8-3.4-2-4.6
		l0.6-2.3C37,23,38.7,21.8,40.6,22L40.6,22z"/>
	<path class="st0" d="M50,26.6c0.3,0,0.5,0.1,0.8,0.1c2.2,0.6,3.4,2.8,2.8,5L52,37.4c-0.5,1.8-2.1,2.9-3.9,2.9c-0.4,0-0.7,0-1.1-0.1
		c-2.1-0.6-3.4-2.8-2.8-4.9l1.6-5.9c0.5-1.6,1.8-2.6,3.3-2.8C49.5,26.5,49.8,26.5,50,26.6L50,26.6z"/>
	<path class="st0" d="M29.8,56.3c-10.6,0-18.4-7.4-18.4-17.2v-7.3c0-2.3,1.9-4.2,4.2-4.2h15.9c2.2,0,4,1.8,4,4c0,2.2-1.8,4-4,4h-9.8
		c-0.4,0-0.8,0.2-1,0.6c-0.2,0.4-0.2,0.8,0,1.2c0.2,0.4,0.6,0.6,1,0.6c0,0,1.7,0,3.5,1c1.7,1,3.4,2.8,3.4,7c0,0.4,0.2,0.8,0.6,1
		c0.4,0.2,0.8,0.2,1.2,0c0.4-0.2,0.6-0.6,0.6-1c0-3.9-1.5-6.5-3.2-8h3.2c0.2,2.5,2,4.8,4.6,5.5c0.6,0.2,1.1,0.2,1.7,0.2
		c2.5,0,4.9-1.5,5.8-3.9c0.8,1.2,2,2.1,3.5,2.5c0.6,0.2,1.2,0.2,1.7,0.2C47.4,48.4,41.2,56.3,29.8,56.3z"/>
</g>
</svg>
