<?xml version="1.0" encoding="utf-8"?>
<!-- Generator: Adobe Illustrator 23.0.1, SVG Export Plug-In . SVG Version: 6.00 Build 0)  -->
<svg version="1.1" id="レイヤー_1" xmlns="http://www.w3.org/2000/svg" xmlns:xlink="http://www.w3.org/1999/xlink" x="0px"
	 y="0px" width="60px" height="60px" viewBox="0 0 60 60" style="enable-background:new 0 0 60 60;" xml:space="preserve">
<style type="text/css">
	.st0{fill:#FF50A0;}
	.st1{opacity:0.2;}
	.st2{opacity:0.5;}
	.st3{opacity:0.3;}
</style>
<path class="st0" d="M57.9,13c-2,0.9-4.2,1.5-6.6,1.8c2.4-1.4,4.2-3.6,5-6.3c-2.2,1.3-4.6,2.3-7.2,2.8c-2.1-2.2-5-3.6-8.3-3.6
	c-6.3,0-11.4,5.1-11.4,11.4c0,0.9,0.1,1.8,0.3,2.6c-9.5-0.5-17.9-5-23.5-11.9c-1,1.7-1.5,3.6-1.5,5.7c0,4,2,7.5,5.1,9.5
	c-1.9-0.1-3.6-0.6-5.2-1.4c0,0,0,0.1,0,0.1c0,5.5,3.9,10.1,9.2,11.2c-1,0.3-2,0.4-3,0.4c-0.7,0-1.5-0.1-2.1-0.2
	c1.5,4.5,5.7,7.8,10.7,7.9C15.3,46,10.4,47.9,5,47.9c-0.9,0-1.8-0.1-2.7-0.2c5,3.2,11,5.1,17.5,5.1c21,0,32.5-17.4,32.5-32.5
	c0-0.5,0-1,0-1.5C54.5,17.3,56.4,15.3,57.9,13z"/>
</svg>
