<?xml version="1.0" encoding="utf-8"?>
<!-- Generator: Adobe Illustrator 24.1.0, SVG Export Plug-In . SVG Version: 6.00 Build 0)  -->
<svg version="1.1" id="Layer_1" xmlns="http://www.w3.org/2000/svg" xmlns:xlink="http://www.w3.org/1999/xlink" x="0px" y="0px"
	 viewBox="0 0 512 512" style="enable-background:new 0 0 512 512;" xml:space="preserve">
<style type="text/css">
	.st0{display:none;}
	.st1{display:inline;}
	.st2{fill:#fff;}
</style>
<g class="st0">
	<path class="st1" d="M505,257c0,34.8-0.7,69.7,0.2,104.5c1.5,61.6-37.2,109.2-86.5,130.4c-19.8,8.5-40.6,13-62.1,13
		c-67.3,0.1-134.7,1-202-0.3c-50.7-1-92.4-22.2-122.3-64c-15.7-22-23.2-47-23.2-74.1c0-71.7,0-143.3,0-215
		c0-58.5,28.5-99.4,79.1-126C110.2,14,134.1,9.1,159,9c65.3,0,130.7-0.4,196,0.2c50.7,0.4,93,19.8,124.2,60.6
		c17.4,22.8,25.8,49,25.8,77.8C505,184,505,220.5,505,257z M46,257c0,36.7,0,73.3,0,110c0,16.4,3.8,31.8,12.3,45.7
		c22.3,36.5,56,54.3,97.8,55c67.1,1,134.3,0.4,201.5,0.2c16.5,0,32.5-3.4,47.4-10.5c40.6-19.4,63.3-50.3,63.1-96.7
		c-0.4-71-0.1-142-0.1-213c0-20.1-5.7-38.5-17.6-54.7c-23-31.1-54.8-46.4-92.8-46.8c-67-0.8-134-0.3-201-0.2
		c-14.3,0-28.1,2.9-41.5,7.9c-36.8,13.7-71,48.4-69.4,99.5C46.9,188,46,222.5,46,257z"/>
	<path class="st1" d="M257.6,363c-64.5,0-116.5-51.4-116.6-115.4c-0.1-63,52.3-114.6,116.4-114.6c64.3-0.1,116.5,51.4,116.6,114.9
		C374,311.3,321.9,362.9,257.6,363z M257.6,326c43.9,0,79.5-35.1,79.4-78.3c-0.1-42.8-35.7-77.8-79.4-77.8
		c-43.9,0-79.7,34.9-79.7,78C178,291.1,213.7,326.1,257.6,326z"/>
	<path class="st1" d="M387.5,98c13.5,0,24.5,11.5,24.5,25.6c-0.1,14.1-11.2,25.5-24.7,25.4c-13.3-0.1-24.2-11.5-24.2-25.3
		C363,109.6,374,98,387.5,98z"/>
</g>
<path class="st2" d="M165.1,464.2c187.3,0,289.7-155.1,289.7-289.7c0-4.4,0-8.8-0.3-13.2c19.9-14.4,37.1-32.3,50.8-52.7
	c-18.6,8.2-38.3,13.6-58.5,16C468,112,483.9,92,491.5,68.4c-20,11.9-41.8,20.2-64.6,24.7c-38.6-41-103-43-144-4.4
	c-26.4,24.9-37.7,61.9-29.5,97.3c-81.9-4.1-158.1-42.8-209.8-106.4c-27,46.5-13.2,106,31.5,135.9c-16.2-0.5-32.1-4.9-46.2-12.7
	c0,0.4,0,0.9,0,1.3c0,48.5,34.2,90.2,81.7,99.8c-15,4.1-30.7,4.7-46,1.7c13.3,41.5,51.6,69.9,95.1,70.7
	c-36.1,28.3-80.6,43.7-126.4,43.7c-8.1,0-16.2-0.5-24.2-1.5C55.6,448.4,109.7,464.2,165.1,464.2"/>
</svg>
